<?xml version="1.0" encoding="UTF-8" standalone="no"?>
<svg
   xmlns:dc="http://purl.org/dc/elements/1.1/"
   xmlns:cc="http://creativecommons.org/ns#"
   xmlns:rdf="http://www.w3.org/1999/02/22-rdf-syntax-ns#"
   xmlns:svg="http://www.w3.org/2000/svg"
   xmlns="http://www.w3.org/2000/svg"
   viewBox="0 0 5333.3335 3555.5601"
   height="3555.5601"
   width="5333.3335"
   xml:space="preserve"
   id="svg2"
   version="1.1"><metadata
     id="metadata8"><rdf:RDF><cc:Work
         rdf:about=""><dc:format>image/svg+xml</dc:format><dc:type
           rdf:resource="http://purl.org/dc/dcmitype/StillImage" /></cc:Work></rdf:RDF></metadata><defs
     id="defs6"><clipPath
       id="clipPath124"
       clipPathUnits="userSpaceOnUse"><path
         id="path122"
         d="m 25175.2,7086.8 c 1035.9,-755.6 2488.4,-528.1 3243.9,508 755.4,1036.2 528,2488.6 -508.1,3244 -1036.1,755.5 -2488.3,528.1 -3243.8,-508 -755.6,-1036 -528.2,-2488.4 508,-3244" /></clipPath><clipPath
       id="clipPath244"
       clipPathUnits="userSpaceOnUse"><path
         id="path242"
         d="M 12822.7,2073.2 H 25947.9 V 21665.1 H 12822.7 Z" /></clipPath><clipPath
       id="clipPath290"
       clipPathUnits="userSpaceOnUse"><path
         id="path288"
         d="M 28813.6,2073.2 22586.5,17418.5 H 16127.9 L 10521.7,2073.2 h 18291.9" /></clipPath></defs><g
     transform="matrix(1.3333333,0,0,-1.3333333,0,3555.56)"
     id="g10"><g
       transform="scale(0.1)"
       id="g12"><g
         transform="scale(2.45399)"
         id="g14"><path
           id="path16"
           style="fill:#ffffff;fill-opacity:1;fill-rule:nonzero;stroke:none"
           d="M 16300,0 H 0 V 10866.7 H 16300 V 0" /></g><g
         transform="scale(1.64713)"
         id="g18"><path
           id="path20"
           style="fill:#ecf2fa;fill-opacity:1;fill-rule:nonzero;stroke:none"
           d="m 14881.8,11569.5 c -1417.9,-1107.1 -3372.6,-305 -4022.7,469.9 -1919.67,2288.1 5440.9,637.2 4022.7,-469.9" /></g><g
         transform="scale(1.82693)"
         id="g22"><path
           id="path24"
           style="fill:#ecf2fa;fill-opacity:1;fill-rule:nonzero;stroke:none"
           d="M 15401.7,4110.29 C 14562.8,2672.8 12910.5,1443.9 11082.3,1129.98 c -295.2,-50.68 -595.1,-77.5 -896.9,-77.5 -71.4,0 -142.7,1.42 -214.33,4.76 -1216.31,51.45 -2452.92,548.41 -3535.73,1683.81 -1672.48,1753.99 -2169.17,3468.89 -1863.33,4944.54 88.92,429.41 245.88,838.62 461.62,1222.49 1893.91,3370.92 3858.52,859.01 6507.57,489.15 1827.3,-254.89 4103.9,-574.76 4546.9,-2229.18 211.9,-790.51 51.4,-1793.12 -686.4,-3057.76" /></g><path
         id="path26"
         style="fill:#fc721a;fill-opacity:1;fill-rule:nonzero;stroke:none"
         d="m 12314.9,2054.5 3516,-10.7 c 48,-0.2 87,38.6 87.2,86.6 l 0.9,314.8 c 0.2,48.1 -38.6,87.1 -86.6,87.3 l -3516,10.8 c -48,0.1 -87.1,-38.7 -87.2,-86.7 l -1,-314.8 c -0.1,-48.1 38.7,-87.1 86.7,-87.3" /><path
         id="path28"
         style="fill:#101c3a;fill-opacity:1;fill-rule:nonzero;stroke:none"
         d="m 12316.1,2530.2 c -19.6,0 -38.1,-7.7 -52,-21.4 -14,-14 -21.8,-32.5 -21.8,-52.2 l -1,-315 c -0.1,-19.6 7.5,-38.1 21.4,-52.2 13.9,-14 32.4,-21.7 52.3,-21.8 l 3515.9,-10.8 h 0.2 c 19.6,0 38.1,7.6 52.1,21.4 14,14 21.7,32.5 21.8,52.2 l 1,314.9 c 0.1,19.7 -7.6,38.3 -21.5,52.2 -13.9,14.1 -32.4,21.8 -52.2,21.9 l -3516,10.8 z m 3515,-499.5 h -0.3 l -3516,10.8 c -26.7,0.1 -51.8,10.6 -70.7,29.6 -18.7,18.9 -29.1,44 -28.9,70.7 l 0.9,314.9 c 0.2,55 45,99.6 100,99.6 h 0.3 l 3516.1,-10.8 c 26.6,-0.1 51.7,-10.6 70.5,-29.5 18.8,-18.9 29.2,-44.1 29.1,-70.8 l -1,-314.9 c 0,-26.7 -10.5,-51.7 -29.5,-70.6 -18.9,-18.7 -43.9,-29 -70.5,-29" /><path
         id="path30"
         style="fill:#fc721a;fill-opacity:1;fill-rule:nonzero;stroke:none"
         d="m 11982.5,2537.7 3515.9,-10.8 c 48.1,-0.1 87.1,38.7 87.2,86.7 l 1,314.8 c 0.2,48 -38.7,87.1 -86.7,87.2 l -3515.9,10.9 c -48.1,0.1 -87.1,-38.7 -87.3,-86.7 l -0.9,-314.8 c -0.2,-48.1 38.6,-87.1 86.7,-87.3" /><path
         id="path32"
         style="fill:#101c3a;fill-opacity:1;fill-rule:nonzero;stroke:none"
         d="m 11983.8,3013.4 c -40.7,0 -73.9,-33 -74,-73.7 l -1,-314.8 c -0.1,-19.8 7.6,-38.3 21.5,-52.3 14,-14 32.4,-21.7 52.1,-21.8 h 0.1 l 3516,-10.8 h 0.2 c 40.6,0 73.7,33.1 73.9,73.7 l 0.9,314.8 c 0.1,19.7 -7.6,38.3 -21.4,52.3 -14,14 -32.5,21.7 -52.3,21.8 l -3515.9,10.8 z m 3514.9,-499.5 h -0.4 l -3515.9,10.8 c -26.7,0 -51.7,10.5 -70.5,29.4 -18.9,19 -29.3,44.2 -29.2,70.9 l 1,314.8 c 0.1,55 45,99.8 100.1,99.8 h 0.2 l 3516,-10.9 c 55.1,-0.1 99.8,-45.1 99.6,-100.4 l -0.9,-314.8 c -0.2,-55 -45,-99.6 -100,-99.6" /><path
         id="path34"
         style="fill:#fc721a;fill-opacity:1;fill-rule:nonzero;stroke:none"
         d="m 12215.3,3026.5 3516,-10.9 c 48.1,-0.1 87.1,38.7 87.2,86.7 l 1,314.8 c 0.1,48 -38.7,87.1 -86.7,87.2 l -3516,10.8 c -48,0.2 -87,-38.6 -87.1,-86.7 l -1,-314.8 c -0.2,-47.9 38.6,-87 86.6,-87.1" /><path
         id="path36"
         style="fill:#101c3a;fill-opacity:1;fill-rule:nonzero;stroke:none"
         d="m 12216.6,3502.1 c -19.7,0 -38.1,-7.7 -52.1,-21.5 -14,-13.9 -21.8,-32.4 -21.8,-52.2 l -1,-314.8 c 0,-19.7 7.6,-38.3 21.5,-52.2 13.9,-14 32.4,-21.8 52.2,-21.8 l 3516,-10.9 h 0.2 c 19.6,0 38.2,7.7 52,21.5 14.1,13.9 21.8,32.4 21.9,52.2 l 0.9,314.8 c 0.1,19.7 -7.6,38.3 -21.4,52.2 -14,14 -32.5,21.8 -52.3,21.9 l -3515.9,10.8 z m 3515,-499.5 h -0.3 l -3516,10.8 c -55.1,0.2 -99.9,45.2 -99.7,100.3 l 1,314.8 c 0.1,55 45,99.7 100,99.7 h 0.4 l 3515.9,-10.8 c 26.7,-0.1 51.8,-10.6 70.6,-29.5 18.8,-18.9 29.1,-44 29,-70.8 l -0.9,-314.8 c -0.1,-26.8 -10.6,-51.9 -29.5,-70.7 -18.8,-18.7 -43.9,-29 -70.5,-29" /><path
         id="path38"
         style="fill:#fc721a;fill-opacity:1;fill-rule:nonzero;stroke:none"
         d="m 12472.9,3509.7 3516,-10.8 c 48.1,-0.2 87.1,38.6 87.3,86.6 l 0.9,314.8 c 0.2,48.1 -38.7,87.1 -86.7,87.2 l -3515.9,10.9 c -48,0.1 -87.1,-38.7 -87.2,-86.8 l -1,-314.8 c -0.2,-47.9 38.7,-87 86.6,-87.1" /><path
         id="path40"
         style="fill:#101c3a;fill-opacity:1;fill-rule:nonzero;stroke:none"
         d="m 12473,3522.7 3516,-10.8 h 0.3 c 19.7,0 38,7.6 51.9,21.4 14,13.9 21.8,32.4 21.9,52.3 l 0.9,314.8 c 0.1,19.7 -7.6,38.2 -21.4,52.2 -14,14.1 -32.5,21.8 -52.2,21.9 l -3516,10.8 h -0.2 c -19.6,0 -38.1,-7.7 -52.1,-21.5 -14,-14 -21.7,-32.4 -21.8,-52.2 l -0.9,-314.8 c -0.1,-19.7 7.5,-38.3 21.4,-52.3 13.9,-14 32.5,-21.7 52.2,-21.8 z m 3516.4,-36.8 h -0.5 l -3516,10.7 c -55.1,0.1 -99.9,45.1 -99.7,100.4 l 1,314.8 c 0.1,26.6 10.5,51.7 29.5,70.5 18.9,18.7 44,29.1 70.5,29.1 h 0.4 l 3515.9,-10.8 c 55.1,-0.2 99.9,-45.2 99.6,-100.4 l -0.9,-314.7 c -0.1,-26.7 -10.6,-51.9 -29.6,-70.7 -18.8,-18.7 -43.7,-28.9 -70.2,-28.9" /><path
         id="path42"
         style="fill:#fc721a;fill-opacity:1;fill-rule:nonzero;stroke:none"
         d="m 11982.5,3997.4 3515.9,-10.8 c 48.1,-0.2 87.1,38.6 87.2,86.7 l 1,314.8 c 0.2,48 -38.7,87.1 -86.7,87.2 l -3515.9,10.8 c -48.1,0.1 -87.1,-38.7 -87.3,-86.6 l -0.9,-314.9 c -0.2,-48 38.6,-87 86.7,-87.2" /><path
         id="path44"
         style="fill:#101c3a;fill-opacity:1;fill-rule:nonzero;stroke:none"
         d="m 11983.7,4473.1 c -19.6,0 -38.2,-7.7 -52.1,-21.5 -14,-13.9 -21.7,-32.4 -21.8,-52.2 l -1,-314.9 c -0.1,-19.7 7.6,-38.2 21.5,-52.2 13.9,-14 32.4,-21.7 52.2,-21.8 l 3516,-10.9 h 0.2 c 19.6,0 38.2,7.7 52,21.5 14,14 21.8,32.5 21.9,52.3 l 1,314.8 c 0.1,19.7 -7.6,38.3 -21.5,52.2 -14,14 -32.5,21.7 -52.3,21.8 l -3515.9,10.9 z m 3515,-499.6 h -0.4 l -3515.9,10.8 c -26.8,0.1 -51.8,10.6 -70.6,29.6 -18.8,18.9 -29.2,44 -29.1,70.8 l 1,314.8 c 0.1,26.7 10.5,51.8 29.4,70.6 18.9,18.7 44,29.1 70.6,29.1 h 0.3 l 3516,-10.9 c 55.1,-0.1 99.9,-45.1 99.7,-100.3 l -1,-314.8 c -0.2,-55.1 -45,-99.7 -100,-99.7" /><path
         id="path46"
         style="fill:#fc721a;fill-opacity:1;fill-rule:nonzero;stroke:none"
         d="m 12084.3,5456 3516,-10.8 c 48,-0.2 87.1,38.6 87.2,86.7 l 1,314.8 c 0.1,48 -38.7,87 -86.7,87.2 l -3516,10.8 c -48,0.1 -87,-38.7 -87.2,-86.7 l -0.9,-314.8 c -0.2,-48 38.6,-87 86.6,-87.2" /><path
         id="path48"
         style="fill:#101c3a;fill-opacity:1;fill-rule:nonzero;stroke:none"
         d="m 12084.4,5469 3516,-10.8 h 0.2 c 19.6,0 38.1,7.7 52,21.5 14.1,14 21.8,32.4 21.9,52.2 l 0.9,314.8 c 0.1,40.7 -32.9,74 -73.6,74.1 l -3516.1,10.8 h -0.2 c -19.6,0 -38.1,-7.7 -52,-21.5 -14,-13.9 -21.7,-32.4 -21.8,-52.2 l -1,-314.8 c 0,-19.6 7.6,-38.2 21.5,-52.2 13.9,-14 32.4,-21.8 52.2,-21.9 z m 3516.2,-36.9 h -0.4 l -3515.9,10.8 c -26.7,0.1 -51.9,10.5 -70.7,29.6 -18.8,18.9 -29.1,44.1 -29,70.8 l 1,314.7 c 0.1,55.1 45,99.7 99.9,99.7 h 0.4 l 3516,-10.8 c 55.1,-0.1 99.9,-45.1 99.6,-100.4 l -0.9,-314.7 c -0.1,-26.8 -10.6,-51.8 -29.5,-70.6 -18.9,-18.7 -44,-29.1 -70.5,-29.1" /><path
         id="path50"
         style="fill:#fc721a;fill-opacity:1;fill-rule:nonzero;stroke:none"
         d="m 11820.5,5943.8 3516,-10.8 c 48,-0.2 87.1,38.6 87.2,86.6 l 1,314.8 c 0.1,48.1 -38.7,87.1 -86.7,87.3 l -3516,10.8 c -48,0.1 -87,-38.7 -87.2,-86.8 l -0.9,-314.7 c -0.2,-48 38.6,-87.1 86.6,-87.2" /><path
         id="path52"
         style="fill:#101c3a;fill-opacity:1;fill-rule:nonzero;stroke:none"
         d="m 11820.6,5956.8 3516,-10.7 h 0.3 c 19.5,0 38.1,7.6 51.9,21.4 14,13.9 21.8,32.5 21.8,52.2 l 1,314.8 c 0.1,40.7 -33,73.9 -73.6,74.1 l -3516.1,10.8 h -0.2 c -19.6,0 -38.1,-7.7 -52,-21.5 -14,-13.9 -21.8,-32.4 -21.8,-52.2 l -1,-314.9 c 0,-19.6 7.6,-38.1 21.5,-52.2 13.9,-14 32.4,-21.7 52.2,-21.8 z m 3516.3,-36.8 h -0.4 l -3516,10.7 c -26.7,0.1 -51.8,10.6 -70.6,29.5 -18.8,18.9 -29.1,44.1 -29.1,70.8 l 1,314.9 c 0,26.7 10.5,51.7 29.5,70.5 18.8,18.8 43.9,29.1 70.4,29.1 h 0.4 l 3516,-10.8 c 55.1,-0.2 99.9,-45.3 99.6,-100.4 l -0.9,-314.7 c -0.2,-55 -45,-99.6 -99.9,-99.6" /><path
         id="path54"
         style="fill:#fc721a;fill-opacity:1;fill-rule:nonzero;stroke:none"
         d="m 11982.5,4480.6 3515.9,-10.8 c 48.1,-0.2 87.1,38.6 87.2,86.7 l 1,314.8 c 0.2,48 -38.7,87.1 -86.7,87.2 l -3515.9,10.8 c -48.1,0.1 -87.1,-38.7 -87.3,-86.7 l -0.9,-314.8 c -0.2,-48 38.6,-87 86.7,-87.2" /><path
         id="path56"
         style="fill:#101c3a;fill-opacity:1;fill-rule:nonzero;stroke:none"
         d="m 11982.5,4493.7 3516,-10.8 h 0.2 c 19.6,0 38.2,7.6 52,21.4 14,14 21.8,32.5 21.9,52.3 l 1,314.7 c 0.1,19.7 -7.6,38.3 -21.5,52.3 -14,14 -32.5,21.8 -52.3,21.8 l -3515.9,10.8 h -0.2 c -19.6,0 -38.2,-7.7 -52.1,-21.5 -14,-13.9 -21.7,-32.4 -21.8,-52.2 l -1,-314.8 c -0.1,-19.6 7.6,-38.2 21.5,-52.2 13.9,-14 32.4,-21.8 52.2,-21.8 z m 3516.2,-37 h -0.4 l -3515.9,10.8 c -55.2,0.2 -99.9,45.2 -99.7,100.4 l 1,314.8 c 0.1,26.6 10.5,51.8 29.4,70.6 18.9,18.7 44,29 70.6,29 h 0.3 l 3516,-10.7 c 55.1,-0.2 99.9,-45.2 99.7,-100.4 l -1,-314.8 c -0.2,-55 -45,-99.7 -100,-99.7" /><path
         id="path58"
         style="fill:#fc721a;fill-opacity:1;fill-rule:nonzero;stroke:none"
         d="m 11595.1,4969.3 3516,-10.8 c 48,-0.1 87,38.7 87.1,86.7 l 1,314.8 c 0.2,48 -38.6,87 -86.7,87.2 l -3515.9,10.8 c -48,0.1 -87.1,-38.7 -87.2,-86.7 l -1,-314.8 c -0.1,-48 38.7,-87.1 86.7,-87.2" /><path
         id="path60"
         style="fill:#101c3a;fill-opacity:1;fill-rule:nonzero;stroke:none"
         d="m 11595.2,4982.3 3515.9,-10.7 h 0.3 c 19.6,0 38.1,7.6 52,21.4 14,13.9 21.7,32.5 21.8,52.2 l 1,314.8 c 0,40.7 -32.9,74 -73.7,74.2 l -3516,10.7 h -0.3 c -19.6,0 -38,-7.6 -52,-21.4 -14,-14 -21.7,-32.4 -21.8,-52.3 l -0.9,-314.8 c -0.1,-19.6 7.6,-38.3 21.4,-52.3 14,-14 32.5,-21.7 52.3,-21.8 z m 3516.2,-36.9 h -0.4 l -3516,10.8 c -55.1,0.2 -99.9,45.1 -99.7,100.4 l 1,314.8 c 0.1,26.7 10.6,51.8 29.6,70.7 18.8,18.7 43.7,28.9 70.2,28.9 h 0.5 l 3516,-10.7 c 55.1,-0.2 99.9,-45.2 99.7,-100.4 l -1,-314.8 c -0.1,-55 -45,-99.7 -99.9,-99.7" /><path
         id="path62"
         style="fill:#fc721a;fill-opacity:1;fill-rule:nonzero;stroke:none"
         d="M 15782.9,6422.1 12267,6411.3 c -48.1,-0.1 -87.1,38.7 -87.2,86.6 l -1,314.9 c -0.2,48 38.6,87 86.7,87.2 l 3515.9,10.8 c 48.1,0.1 87.1,-38.7 87.2,-86.7 l 1,-314.8 c 0.2,-48 -38.6,-87.1 -86.7,-87.2" /><path
         id="path64"
         style="fill:#101c3a;fill-opacity:1;fill-rule:nonzero;stroke:none"
         d="m 15781.7,6897.8 h -0.2 l -3515.9,-10.9 c -19.8,-0.1 -38.4,-7.8 -52.3,-21.8 -13.9,-14 -21.6,-32.6 -21.5,-52.2 l 1,-314.8 c 0,-19.8 7.8,-38.4 21.8,-52.2 13.9,-13.9 32.4,-21.5 51.9,-21.5 h 0.4 l 3516,10.8 c 19.8,0.1 38.3,7.8 52.2,21.8 13.9,13.9 21.5,32.6 21.5,52.2 l -1,314.9 c -0.1,19.7 -7.8,38.2 -21.8,52.2 -14,13.8 -32.5,21.5 -52.1,21.5 z m -3515.2,-499.5 c -26.5,0 -51.5,10.3 -70.3,28.9 -18.9,18.9 -29.5,44.1 -29.5,70.7 l -1,314.8 c -0.1,26.8 10.2,51.9 29.1,70.8 18.8,18.9 43.9,29.4 70.6,29.5 l 3515.9,10.9 h 0.4 c 26.6,0 51.6,-10.4 70.5,-29.1 19,-18.8 29.4,-43.9 29.5,-70.6 l 1,-314.9 c 0,-26.7 -10.3,-51.8 -29.1,-70.7 -18.8,-19 -43.9,-29.4 -70.6,-29.5 l -3516,-10.8 h -0.5" /><path
         id="path66"
         style="fill:#fc721a;fill-opacity:1;fill-rule:nonzero;stroke:none"
         d="m 15409.2,7880.7 -3516,-10.8 c -48,-0.2 -87,38.7 -87.2,86.6 l -1,314.8 c -0.1,48.1 38.7,87.1 86.7,87.3 l 3516,10.8 c 48,0.1 87,-38.7 87.2,-86.7 l 1,-314.8 c 0.1,-48 -38.7,-87.1 -86.7,-87.2" /><path
         id="path68"
         style="fill:#101c3a;fill-opacity:1;fill-rule:nonzero;stroke:none"
         d="m 15407.8,8356.3 h -0.1 l -3515.9,-10.8 c -19.8,-0.1 -38.3,-7.8 -52.2,-21.8 -13.9,-14 -21.6,-32.5 -21.5,-52.2 l 1,-314.9 c 0,-19.8 7.8,-38.3 21.8,-52.2 13.9,-13.8 32.4,-21.5 52,-21.5 h 0.1 l 3516.2,10.9 c 19.7,0 38.1,7.7 52.1,21.7 13.9,14 21.5,32.6 21.5,52.3 l -1,314.8 c -0.1,40.7 -33.3,73.7 -74,73.7 z m -3514.9,-499.5 c -54.9,0 -99.8,44.7 -99.9,99.7 l -1,314.8 c -0.2,55.2 44.5,100.2 99.6,100.3 l 3516,10.9 h 0.2 c 55.1,0 100,-44.7 100.1,-99.8 l 1,-314.8 c 0.1,-26.7 -10.3,-51.9 -29.1,-70.9 -18.8,-18.8 -43.9,-29.3 -70.6,-29.3 l -3515.9,-10.9 h -0.4" /><path
         id="path70"
         style="fill:#fc721a;fill-opacity:1;fill-rule:nonzero;stroke:none"
         d="M 15782.9,6905.3 12267,6894.5 c -48.1,-0.1 -87.1,38.7 -87.2,86.7 l -1,314.8 c -0.2,48 38.6,87 86.7,87.2 l 3515.9,10.8 c 48.1,0.1 87.1,-38.6 87.2,-86.7 l 1,-314.8 c 0.2,-48 -38.6,-87.1 -86.7,-87.2" /><path
         id="path72"
         style="fill:#101c3a;fill-opacity:1;fill-rule:nonzero;stroke:none"
         d="m 15781.6,7381 h -0.2 l -3515.8,-10.8 c -19.8,-0.1 -38.4,-7.9 -52.3,-21.9 -13.9,-14 -21.6,-32.5 -21.5,-52.2 l 1,-314.9 c 0.2,-40.6 33.3,-73.6 73.9,-73.6 h 0.2 l 3516.1,10.8 c 19.7,0.1 38.1,7.7 52,21.7 14,14 21.6,32.6 21.6,52.3 l -1,314.8 c -0.1,40.7 -33.3,73.8 -74,73.8 z m -3514.9,-499.6 c -55,0 -99.8,44.7 -100,99.7 l -1,314.8 c -0.1,26.7 10.2,51.9 29.1,70.9 18.8,18.9 43.9,29.3 70.6,29.5 l 3515.9,10.8 h 0.3 c 55.1,0 100,-44.7 100.1,-99.7 l 1,-314.8 c 0,-26.8 -10.3,-52 -29.2,-70.9 -18.8,-18.9 -43.8,-29.4 -70.5,-29.4 l -3516,-10.9 h -0.3" /><path
         id="path74"
         style="fill:#fc721a;fill-opacity:1;fill-rule:nonzero;stroke:none"
         d="m 15563.1,7394 -3516,-10.8 c -48,-0.2 -87.1,38.6 -87.2,86.6 l -1,314.9 c -0.1,48 38.7,87 86.7,87.1 l 3516,10.9 c 48,0.2 87,-38.7 87.2,-86.7 l 0.9,-314.8 c 0.2,-48 -38.6,-87 -86.6,-87.2" /><path
         id="path76"
         style="fill:#101c3a;fill-opacity:1;fill-rule:nonzero;stroke:none"
         d="m 15561.9,7869.6 h -0.3 l -3516,-10.8 c -19.8,0 -38.2,-7.8 -52.2,-21.8 -13.8,-14 -21.5,-32.5 -21.5,-52.2 l 1,-314.9 c 0.1,-19.7 7.8,-38.2 21.8,-52.2 14,-13.8 32.5,-21.4 52.1,-21.4 h 0.2 l 3516,10.8 c 40.8,0.1 73.8,33.3 73.7,74.1 l -1,314.7 c -0.1,19.8 -7.8,38.3 -21.8,52.2 -13.9,13.9 -32.4,21.5 -52,21.5 z m -3515.1,-499.4 c -55,0 -99.9,44.5 -100,99.6 l -1,314.8 c -0.2,55.2 44.6,100.2 99.7,100.3 l 3516,10.8 h 0.4 c 26.6,0 51.6,-10.3 70.5,-29.1 18.9,-18.8 29.4,-43.9 29.4,-70.6 l 1,-314.7 c 0.2,-55.2 -44.5,-100.2 -99.6,-100.3 l -0.1,13 0.1,-13 -3516,-10.8 h -0.4" /><path
         id="path78"
         style="fill:#fc721a;fill-opacity:1;fill-rule:nonzero;stroke:none"
         d="m 11339.9,4495.8 c -598.6,330.3 -925.5,1141 -751,1990.8 173.4,844 786.2,1457.4 1461.1,1531.9 l 12,59.6 375.6,-77.2 c 814.5,-167.3 1307.8,-1116.7 1101.6,-2120.5 -206.1,-1003.7 -1033.9,-1681.8 -1848.5,-1514.5 l -363.8,65.1 13,64.8" /><path
         id="path80"
         style="fill:#101c3a;fill-opacity:1;fill-rule:nonzero;stroke:none"
         d="m 11342.3,4441.6 350.6,-62.8 c 806.7,-165.5 1629.1,509.3 1833.5,1504.2 99.2,482.5 39.9,967.4 -166.8,1365.3 -206.2,396.9 -534.6,659.7 -924.7,739.8 l -362.6,74.6 -11.4,-56.1 -9.5,-1 c -685,-75.7 -1281.1,-701.4 -1449.6,-1521.7 -170.1,-828.1 136.1,-1641 744.5,-1976.7 l 8.4,-4.6 z m 596.7,-114 c -83.4,0 -167.2,8.3 -251,25.4 l -376.6,67.5 13.9,68.5 c -612.8,344 -920.7,1164.7 -749.2,2000.2 170,827.4 770.8,1459.7 1463,1541.2 l 12.7,63.1 12.8,-2.6 375.6,-77.1 c 397.9,-81.8 732.7,-349.3 942.6,-753.4 209.5,-403.2 269.6,-894.3 169.3,-1382.6 -186.2,-906.2 -879.5,-1550.2 -1613.1,-1550.2" /><path
         id="path82"
         style="fill:#ffffff;fill-opacity:1;fill-rule:nonzero;stroke:none"
         d="m 10213.5,6563.7 c -206.3,-1003.8 298.7,-1965.3 1113.4,-2132.7 814.6,-167.3 1630.6,522.8 1836.9,1526.5 206.2,1003.8 -287.1,1953.1 -1101.8,2120.6 -814.6,167.4 -1642.3,-510.7 -1848.5,-1514.4" /><path
         id="path84"
         style="fill:#fc721a;fill-opacity:1;fill-rule:nonzero;stroke:none"
         d="m 10476.8,6508.7 c -169.3,-824.4 245.3,-1614.3 914.5,-1751.5 669.3,-137.6 1339.5,429.2 1508.8,1253.6 169.3,824.5 -235.9,1604.3 -904.9,1741.8 C 11326,7890 10646.1,7333.2 10476.8,6508.7" /><path
         id="path86"
         style="fill:#101c3a;fill-opacity:1;fill-rule:nonzero;stroke:none"
         d="m 11789.1,7760.4 c -254.4,0 -508.4,-95.8 -732.3,-279.1 -284.4,-233.1 -485.9,-579.4 -567.1,-975.3 -81.3,-395.4 -31,-794.8 141.5,-1124.7 171.9,-328.5 442.7,-545.6 762.7,-611.3 318.6,-65.4 649.3,28 930.9,263.3 281.1,234.9 480.9,583 562.4,980.2 167.6,816 -233.7,1590.4 -894.8,1726.2 -67.4,13.9 -135.4,20.7 -203.3,20.7 z m -195,-3036.9 c -68.6,0 -137.2,6.9 -205.5,20.8 -327.8,67.3 -605,289.2 -780.6,624.9 -175.3,335.1 -226.4,740.8 -144,1142.2 82.5,401.6 287.1,753.2 576.2,990.1 289.9,237.5 629.9,331.3 957.6,263.9 675.1,-138.7 1085.6,-927 915.1,-1757.2 -82.8,-402.9 -285.7,-756.3 -571.3,-994.9 -227.8,-190.3 -487.3,-289.8 -747.5,-289.8" /><path
         id="path88"
         style="fill:#ffffff;fill-opacity:1;fill-rule:nonzero;stroke:none"
         d="m 11850.9,5901.1 c 7.5,23.8 8.6,47.6 2.8,71.5 -5.7,23.8 -16,48.1 -31.1,72.4 -14.9,24.3 -33.2,48.3 -55,72 -21.8,23.6 -45,46.7 -69.6,69 l -138,-429.3 c 35.7,-6.3 69.3,-7.3 100.7,-2.9 31.5,4.3 60,13 85.4,25.7 25.5,12.9 47.2,29.7 65.1,50.4 17.8,20.5 31.1,44.4 39.7,71.2 z m -351.5,836.4 c -7.7,-23.5 -10.1,-46.4 -7.5,-68.6 2.6,-22.2 9.2,-44.1 19.7,-65.7 10.4,-21.5 24.4,-42.6 41.9,-63.8 17.5,-21.3 37.3,-42.2 59.5,-63.3 l 122.4,381.2 c -61,8.6 -112,1.7 -153.2,-20.8 -41.4,-22.7 -69,-55.6 -82.8,-99 z m 448.2,225.5 c 42.1,-20.2 80.4,-44.9 115.3,-74 34.8,-29.3 63.9,-63.1 87.4,-101.5 23.4,-38.3 40,-81.4 49.6,-129.3 9.5,-48.1 10.4,-100.4 2.3,-157.2 l -159.6,51.2 c -1.5,60.6 -13.8,111.8 -37,153.6 -23.1,41.9 -59.1,75.6 -108,101.6 l -143,-445.1 c 27.7,-24.1 55.1,-48.3 82.1,-72.6 27,-24.2 52.2,-49.1 75.8,-74.8 23.6,-25.7 44.7,-52.2 63.1,-79.5 18.3,-27.3 32.9,-56 43.5,-86.1 10.6,-30.3 16,-61.8 16.8,-94.6 0.7,-32.7 -4.7,-67.2 -16.3,-103.3 -19.4,-60.4 -47.6,-109.1 -84.5,-146.1 -36.9,-37.1 -78.6,-64.9 -125,-83.7 -46.8,-18.7 -96,-29.1 -148.1,-31.2 -52,-2.1 -102.7,1.8 -151.5,11.7 l -71.6,-222.6 -161.4,52 72.7,226.4 c -44.6,26 -83.4,58.5 -116.8,97.9 -33.3,39.3 -60.4,83.3 -80.9,131.9 -20.6,48.6 -34.4,100.7 -41,156.5 -6.7,55.8 -5.4,112.9 4,171.5 l 169.3,-54.5 c -4.9,-35.3 -6,-69.9 -3.4,-103.7 2.6,-33.7 8.8,-65.3 18.3,-95 9.7,-29.5 23.2,-56.5 40.3,-80.8 17.3,-24.4 37.9,-45.1 62.1,-62.3 l 155.3,483.4 c -38.3,34.2 -74.7,68.9 -108.9,104 -34.3,35.3 -63.1,72.7 -86.3,111.9 -23.2,39.4 -38.5,80.9 -45.9,124.4 -7.3,43.7 -2.7,91.2 13.8,142.2 14.5,45.4 37.1,84.4 67.8,116.9 30.7,32.4 66.6,58.3 107.5,77.8 41.2,19.5 85.7,32.1 133.9,38 48.3,5.8 97.1,4.8 146.8,-3.3 l 45.9,142.8 161.4,-51.7 -45.8,-142.8" /><path
         id="path90"
         style="fill:#fc721a;fill-opacity:1;fill-rule:nonzero;stroke:none"
         d="m 9413.77,2053.2 3516.03,-10.7 c 48,-0.2 87,38.6 87.2,86.6 l 1,314.8 c 0.1,48.1 -38.7,87.1 -86.7,87.3 l -3516,10.8 c -48.05,0.1 -87.08,-38.7 -87.21,-86.8 l -0.98,-314.7 c -0.16,-48.1 38.68,-87.1 86.66,-87.3" /><path
         id="path92"
         style="fill:#101c3a;fill-opacity:1;fill-rule:nonzero;stroke:none"
         d="m 9413.83,2066.3 3515.97,-10.8 h 0.2 c 19.7,0 38.2,7.7 52.1,21.5 14,13.9 21.7,32.4 21.8,52.2 l 1,314.8 c 0.1,19.6 -7.6,38.3 -21.4,52.3 -14,14 -32.6,21.7 -52.3,21.8 l -3515.97,10.8 H 9415 c -19.59,0 -38.11,-7.7 -52.05,-21.5 -14.02,-13.9 -21.77,-32.4 -21.84,-52.2 l -0.94,-314.8 c -0.1,-19.7 7.58,-38.3 21.45,-52.3 13.93,-14 32.46,-21.7 52.21,-21.8 z M 12930,2029.4 h -0.3 l -3515.99,10.8 c -55.12,0.1 -99.88,45.1 -99.65,100.3 l 0.94,314.8 c 0.07,26.8 10.55,51.8 29.5,70.6 18.88,18.7 43.98,29.1 70.5,29.1 h 0.4 l 3515.9,-10.8 c 26.7,-0.1 51.9,-10.6 70.7,-29.5 18.8,-19 29.1,-44.1 29.1,-70.8 l -1.1,-314.8 c -0.2,-55 -45,-99.7 -100,-99.7" /><path
         id="path94"
         style="fill:#fc721a;fill-opacity:1;fill-rule:nonzero;stroke:none"
         d="m 10122.9,3511.8 3516,-10.8 c 48,-0.1 87,38.7 87.2,86.7 l 1,314.8 c 0.1,48.1 -38.7,87.1 -86.7,87.2 l -3516,10.8 c -48,0.2 -87.1,-38.6 -87.2,-86.7 l -1,-314.7 c -0.1,-48.1 38.7,-87.1 86.7,-87.3" /><path
         id="path96"
         style="fill:#101c3a;fill-opacity:1;fill-rule:nonzero;stroke:none"
         d="m 10124.1,3987.5 c -19.6,0 -38.1,-7.7 -52,-21.5 -14,-13.9 -21.8,-32.4 -21.8,-52.2 l -1,-314.9 c -0.1,-19.6 7.6,-38.2 21.5,-52.2 13.9,-14 32.4,-21.7 52.2,-21.8 l 3516,-10.9 h 0.2 c 40.6,0 73.7,33 73.8,73.7 l 1,314.9 c 0.1,19.7 -7.6,38.3 -21.5,52.2 -13.9,14 -32.4,21.7 -52.2,21.8 l -3516,10.9 z m 3515.1,-499.6 h -0.4 l -3516,10.9 c -26.7,0.1 -51.7,10.5 -70.6,29.5 -18.8,18.9 -29.1,44 -29,70.8 l 1,314.9 c 0,26.7 10.5,51.7 29.4,70.5 18.9,18.7 43.9,29.1 70.5,29.1 h 0.3 l 3516.1,-10.9 c 55,-0.1 99.8,-45.1 99.6,-100.2 l -1,-314.9 c -0.1,-55 -45,-99.7 -99.9,-99.7" /><path
         id="path98"
         style="fill:#fc721a;fill-opacity:1;fill-rule:nonzero;stroke:none"
         d="m 9859.12,3999.6 3515.98,-10.8 c 48,-0.2 87,38.7 87.2,86.7 l 1,314.8 c 0.1,48 -38.7,87 -86.7,87.2 l -3515.99,10.8 c -48.01,0.1 -87.04,-38.7 -87.21,-86.7 l -0.97,-314.8 c -0.13,-48 38.67,-87 86.69,-87.2" /><path
         id="path100"
         style="fill:#101c3a;fill-opacity:1;fill-rule:nonzero;stroke:none"
         d="m 9859.15,4012.6 3516.05,-10.7 h 0.2 c 19.6,0 38.1,7.6 52,21.5 14,13.9 21.8,32.4 21.8,52.2 l 1,314.8 c 0.1,19.7 -7.6,38.3 -21.4,52.2 -14,14 -32.5,21.8 -52.3,21.8 l -3515.95,10.9 h -0.07 c -40.69,0 -73.89,-33.1 -74.05,-73.8 l -0.95,-314.7 c -0.06,-40.7 32.98,-73.9 73.67,-74.2 z m 3516.25,-36.8 h -0.4 l -3515.98,10.7 c -55.11,0.3 -99.87,45.3 -99.64,100.4 l 0.94,314.8 c 0.16,55 45.09,99.7 100.16,99.7 h 0.16 l 3515.96,-10.9 c 26.8,0 51.9,-10.5 70.7,-29.5 18.8,-18.8 29.1,-44 29,-70.8 l -1,-314.8 c -0.1,-55 -45,-99.6 -99.9,-99.6" /><path
         id="path102"
         style="fill:#fc721a;fill-opacity:1;fill-rule:nonzero;stroke:none"
         d="m 9413.77,2536.4 3516.03,-10.8 c 48,-0.1 87,38.7 87.2,86.7 l 1,314.8 c 0.1,48 -38.7,87.1 -86.7,87.3 l -3516,10.8 c -48.05,0.1 -87.08,-38.7 -87.21,-86.8 l -0.98,-314.7 c -0.16,-48 38.68,-87.1 86.66,-87.3" /><path
         id="path104"
         style="fill:#101c3a;fill-opacity:1;fill-rule:nonzero;stroke:none"
         d="m 9415,3012.1 c -19.59,0 -38.11,-7.7 -52.05,-21.4 -14.02,-14 -21.77,-32.5 -21.84,-52.3 l -0.94,-314.9 c -0.1,-19.6 7.58,-38.2 21.45,-52.2 13.93,-14 32.46,-21.7 52.21,-21.8 l 3515.97,-10.8 h 0.2 c 19.7,0 38.1,7.6 52.1,21.5 14,13.9 21.7,32.5 21.8,52.2 l 1,314.8 c 0.1,19.7 -7.6,38.3 -21.4,52.2 -14,14.1 -32.6,21.8 -52.3,21.9 l -3515.97,10.8 z m 3515,-499.6 h -0.3 l -3515.99,10.9 c -55.12,0.1 -99.88,45.1 -99.65,100.3 l 0.94,314.9 c 0.17,55 45,99.6 100,99.6 h 0.4 l 3515.9,-10.8 c 26.7,-0.1 51.9,-10.6 70.7,-29.5 18.8,-18.9 29.1,-44.1 29.1,-70.8 l -1.1,-314.8 c -0.1,-26.7 -10.5,-51.8 -29.5,-70.7 -18.8,-18.7 -43.9,-29.1 -70.5,-29.1" /><path
         id="path106"
         style="fill:#fc721a;fill-opacity:1;fill-rule:nonzero;stroke:none"
         d="m 9633.66,3025.2 3515.94,-10.8 c 48.1,-0.2 87.1,38.6 87.3,86.6 l 0.9,314.8 c 0.2,48 -38.6,87.1 -86.7,87.2 l -3515.94,10.8 c -48.02,0.2 -87.05,-38.6 -87.18,-86.6 l -1.01,-314.9 c -0.13,-48 38.67,-87 86.69,-87.1" /><path
         id="path108"
         style="fill:#101c3a;fill-opacity:1;fill-rule:nonzero;stroke:none"
         d="m 9634.86,3500.8 c -19.66,0 -38.12,-7.7 -52.05,-21.5 -14.03,-14 -21.68,-32.5 -21.74,-52.1 l -1.05,-314.9 c -0.09,-40.8 32.89,-74 73.67,-74.1 l 3516.01,-10.8 h 0.2 c 40.6,0 73.7,33 73.9,73.7 l 1,314.8 c 0.1,40.7 -33,73.9 -73.8,74.1 l -3515.91,10.8 z m 3515.04,-499.5 h -0.4 l -3515.94,10.8 c -55.11,0.2 -99.87,45.1 -99.64,100.3 l 1.04,314.9 c 0,26.6 10.45,51.6 29.33,70.5 18.88,18.8 43.98,29.1 70.57,29.1 h 0.39 l 3515.95,-10.8 c 55.1,-0.2 99.9,-45.3 99.7,-100.4 l -1,-314.8 c -0.2,-55 -45,-99.6 -100,-99.6" /><g
         transform="scale(1.99329)"
         id="g110"><path
           id="path112"
           style="fill:#390d9f;fill-opacity:1;fill-rule:nonzero;stroke:none"
           d="m 16259.1,5350.2 -118.3,-162.19 -51.1,-70.09 -215.2,-294.73 -271.7,-372.86 -162.9,-223.55 -2323.3,-3185.99 c -52.7,-72.039 -158.8,-84.13 -237.6,-26.94 l -59.1,42.85 v 0.35 l -77.3,56.09 -1235.9,901.02 -191.3,139.77 -1125.3,820.65 c -78.5,57.24 -99.6,162.55 -47,234.54 l 37.5,52.28 h 0.4 l 162.9,223.14 v 0.4 l 990.8,1357.56 162.5,223.55 272.1,372.45 508.8,698.24 541.8,743 465.7,638.44 c 52.6,72.39 159.1,84.48 237.5,27.29 l 2669.6,-1946.73 19.8,-14.05 c 17.4,-12.84 32.2,-27.99 43.5,-44.65 40.2,-57.99 44,-133.75 3.1,-189.84" /></g><g
         transform="scale(1.78985)"
         id="g114"><path
           id="path116"
           style="fill:#425fec;fill-opacity:1;fill-rule:nonzero;stroke:none"
           d="m 14065.6,3959.45 c 578.7,-422.16 1390.3,-295.06 1812.4,283.82 422,578.93 295,1390.4 -283.9,1812.44 -578.9,422.11 -1390.3,295.06 -1812.4,-283.82 -422.1,-578.82 -295.1,-1390.29 283.9,-1812.44" /></g><g
         id="g118"><g
           clip-path="url(#clipPath124)"
           id="g120"><g
             transform="scale(1.60636)"
             id="g126"><path
               id="path128"
               style="fill:#ffffff;fill-opacity:1;fill-rule:nonzero;stroke:none"
               d="m 16205.1,4543.62 c 3.1,23.41 0.8,56.77 6.9,67.61 11.7,21.22 27.7,27.76 48.5,35.42 13.7,5.1 26.9,9.46 39.5,13.07 -7.2,-1 -15,-1.43 -23.5,-1 -23.2,-0.74 -46.9,12.58 -70.4,13.26 -22.3,0.69 -41.9,-0.87 -61,-13.38 -30.6,-20.23 -45.4,-59.64 -18.7,-89.52 10.9,-12.2 26.1,-17.18 41.4,-21.16 11.6,-3.05 25.2,-2.18 37.3,-4.3" /></g><g
             transform="scale(1.72758)"
             id="g130"><path
               id="path132"
               style="fill:#ffffff;fill-opacity:1;fill-rule:nonzero;stroke:none"
               d="m 14694.6,3989.17 c 20,-5.04 30.5,7.35 47.2,14.76 61.3,27.27 84.5,0.81 134.6,-25.7 55,-29.12 107.7,-19.91 164.6,-1.16 24.8,8.11 76.9,38.44 99.6,31.2 49.6,-15.74 7.9,-64.36 4.2,-96.32 -7.1,-60.89 34.5,-85.32 86.2,-101.18 102.2,-31.37 208.1,-58.23 312.6,-80.57 30,-6.37 66.9,-18.58 97.6,-9.61 52.2,15.34 49.8,70.73 123.5,62.17 74.8,-8.69 132.4,-112.24 217.4,-91.17 72.3,18.06 57,140.89 63.4,196.05 0.4,3.65 -0.6,6.48 -2.2,8.74 6.3,49.49 16,101.01 45.4,141.42 30.2,41.38 78.1,46.71 117.5,73.45 41.2,27.73 57.5,76.47 40.8,123.81 -4.2,11.99 -18.3,25.42 -21.2,36.94 -9,37.16 15.1,94.35 39.3,120.22 15,16.21 30.1,35.31 32.9,58.18 2,15.97 -0.6,29.75 -9.3,43.52 -8.6,13.55 -25.3,17.66 -36.2,28.2 -33.3,32.64 -45.3,71.25 -27.3,116.17 2.6,6.42 -0.9,15.69 -8,17.71 -20,5.56 -31.3,2.72 -48.5,0.58 -19.9,-24.89 -36.2,-52.15 -57.1,-76.87 -7.7,-9.2 -23.7,-14.59 -33.9,-5.32 -30.5,27.78 -25.5,39.01 -28.2,78.31 3.1,13.26 6.3,26.57 9.4,40 -5,26.57 -19.4,43.76 -43.2,51.57 -9.3,11.41 -14.5,15.4 -18.6,18.7 -80.2,-88.85 -112.7,-263.08 -234.2,-303.14 -20.1,-6.6 -44,-2.49 -63.6,-9.61 -120.9,-44.16 -44.2,-43.12 -89.9,-92.79 -37.9,-41.15 -55,-64.25 -111.7,-77.74 -57.1,-13.6 -96.7,-3.41 -150.2,7.76 -33,6.89 -173.3,18.18 -209.5,-11.87 -44.8,-37.27 23.9,-143.03 -89.9,-121.61 -5.6,1.1 -9.8,3.88 -13,7.23 -21.6,0.64 -41,0.35 -63.1,-7.12 -23.1,-7.81 -42.9,-24.37 -67.8,-27.55 -37.3,-4.86 -66,16.9 -93.2,37.57 -60.2,45.78 -108,90.41 -187.2,97.88 -36.4,3.42 -117.2,1.97 -124.8,-49.2 -1.8,-11.98 3.3,-19.97 8.1,-29.52 5.5,-4.46 11.1,-8.97 16.6,-13.37 14.2,-12.68 22.2,-28.02 24.1,-45.85 3.6,-6.54 6.1,-14.12 10.7,-20.49 13.9,-19.33 35.2,-23.79 53.5,-36.41 72.3,-49.89 23.9,-33.05 59.1,-62.4 7.3,-6.13 14.1,-13.2 23.5,-15.57" /></g><g
             transform="scale(1.75306)"
             id="g134"><path
               id="path136"
               style="fill:#ffffff;fill-opacity:1;fill-rule:nonzero;stroke:none"
               d="m 16181.1,4633.74 c -26.8,32.17 -33.3,74.5 -45.6,113.63 -3.8,11.92 -11.8,52.48 -24.4,58.87 -21,10.72 -49.7,-17.11 -54.2,-32.35 -4.6,-15.57 0.5,-38.96 2.9,-58.12 2.9,-9.99 5.2,-20.25 5.9,-31.32 2,-27.67 -8.2,-62.35 0.3,-89.9 5.7,-18.48 13.9,-22.88 27.8,-35.31 17.6,-15.63 46.2,-23.56 60.3,-44.95 4.6,-6.9 7.5,-29.15 12.1,-40.44 14.4,-36.28 42.2,-59.5 83,-46.38 27.8,8.9 42.9,29.78 50.8,54.25 -4.1,30.57 -16.7,56.07 -32.7,80.54 -28.1,22.76 -60.7,41.13 -86.2,71.48" /></g><g
             transform="scale(1.77086)"
             id="g138"><path
               id="path140"
               style="fill:#ffffff;fill-opacity:1;fill-rule:nonzero;stroke:none"
               d="m 15917.9,5024 c 30.2,14.69 57.7,40.27 84.9,60.2 33.9,24.9 115.4,113.45 143.1,46.59 13.8,-7.34 24.8,-22.14 28.2,-43.43 3.4,-22.36 -4.1,-43.93 -16.7,-63.86 -1.1,-2.1 -2.1,-4.24 -3.3,-6.5 -15.5,-28.18 -34,-62.79 -32.9,-95.72 0.6,-13.94 5.9,-27.61 7.5,-41.56 1.9,-15.75 -2.2,-24.67 6.9,-38.45 5.8,-8.81 13.2,-14.46 18.1,-23.89 7.7,-14.91 9.1,-31.11 19.5,-45.57 15.2,-16.15 33.9,-26.15 46.3,-8.92 2.4,13.44 5.6,25.86 7.8,38.11 -0.2,16.49 -2.2,33.83 -2.7,44.84 0,1.53 0.4,2.71 0.7,4.01 -1.8,5.2 -4.1,10.39 -7.1,15.81 -15.3,28.07 -28.8,47.04 -19.4,79.23 -5,11.69 -8.7,23.55 -8.1,37.1 1.1,22.02 12.8,38.91 32.3,48.73 10.3,5.2 20.1,1.98 30.2,10.68 6.3,5.42 11.1,18.35 16.9,25.07 19.3,22.3 55.4,47.6 85.5,31.79 9,-4.69 14.9,-11.63 19,-19.71 21,-23.72 35,-64.77 43.2,-85.27 3.4,-8.58 11.9,-9.37 18.1,-6.04 18.3,-16.15 41.4,-20.44 64.8,-7.51 43.8,24.06 42.5,88.88 43.2,131.29 2,132.99 -37.9,250.33 -94.6,368.69 -31,64.44 -54.8,129.26 -76.9,197.14 -18.2,56.13 -38.5,114.46 -77.8,159.92 -29,33.6 -66.6,56.47 -109.4,68.16 -11.4,3.05 -23.6,4.57 -36.2,5.31 -44.7,-16.6 -88.5,-34.79 -129.1,-60.03 -30.5,-18.97 -60.6,-39.7 -97.9,-37.89 -74.5,3.78 -113.9,82.78 -129.3,149.53 -23.5,23.66 -50.1,41.79 -79.1,55.51 -30.6,4.8 -61.4,7.29 -92.1,6.72 -40.5,-0.79 -88.5,-9.09 -127.2,7.17 -44.3,18.81 -49.4,59.75 -67.8,97.98 -20.4,42.92 -48.8,66.41 -96.9,57.09 -27.3,-5.25 -49.9,1.3 -72.8,7.85 -19.4,5.59 -39.2,11.12 -62.1,9.49 -25.8,-1.75 -50.2,-11.64 -75.6,-15.98 -57.9,-10 -98.4,5.75 -137.4,47.82 -62.8,67.94 -138.1,179.18 -245.7,115.54 -59,-34.84 -87,-139.59 -18.1,-180.7 19.3,-11.52 34.4,-12.26 54,-26.37 26.3,-18.92 38.9,-39.76 50.8,-69.91 12,-30.55 17.3,-63.36 27.8,-94.36 20.3,-59.64 50.3,-96.62 110.3,-116.61 44.6,-14.97 84.2,-16.6 112.6,-61.39 18,-28.4 21.3,-64.48 33.4,-95.77 15.2,-39.64 51,-119.43 95.3,-134.9 37.7,-13.16 91.4,28.57 119.7,48.56 19.1,13.55 36.8,28.74 53.2,45.29 15.4,15.53 32.3,45.12 50.3,56.3 21.6,13.55 53.6,5.93 77,5.76 47.8,-0.51 100.2,11.18 145.4,26.54 23.1,7.96 41.4,15.75 59.3,32.36 7.2,6.77 14.6,20.95 22.8,26.99 64.4,46.42 54.7,6.1 79.8,-25.86 29.5,-37.61 55.4,-32.76 101.5,-26.38 38.4,5.37 76.7,11.75 115,17.28 4.4,0.57 8.6,1.25 12.8,1.87 36.6,11.46 57.6,-9.83 63.1,-63.81 -13.8,-13.55 -59.6,-3.62 -77,-1.92 -43.3,4.34 -66.4,-1.3 -101.4,-25.25 -32.7,-22.36 -50.8,-28.74 -79.4,-43.76 -17.3,-9.09 -26.6,-23.72 -30.9,-42.8 -11.1,-49.19 27.4,-82.28 41.3,-125.31 15.2,-47.1 -2.1,-103.4 -18.6,-147.95 -11.8,-32.02 -45.9,-59.58 -53.4,-91.76 -3.5,-15.53 4.8,-29.48 10.7,-43.2 18.4,-43.2 38.6,-86.01 58.6,-128.47 15.9,-33.94 26.9,-60.54 66,-41.51" /></g><g
             transform="scale(1.69682)"
             id="g142"><path
               id="path144"
               style="fill:#ffffff;fill-opacity:1;fill-rule:nonzero;stroke:none"
               d="m 15571.9,4571.72 c 46.8,-39.31 111.4,-24.93 159.9,2.07 71.6,39.78 145.4,94.11 208,146.8 28.3,23.81 44.9,52.63 68.4,80.44 22.5,26.64 51.1,42.2 84.6,49.45 12.3,2.65 25.5,0.76 37.7,5.07 21.3,7.48 32.7,17.5 42.8,37.95 11.6,23.87 12.2,43.9 27.9,68.95 12.2,19.51 29.5,35.6 40.7,55.69 18.8,33.54 26.5,71.26 8.4,103.2 47.5,35.12 49.7,102.01 14,153.93 -50,73.08 -129.5,83.92 -210.6,77.32 -18.3,-2.77 -36.9,-3.71 -55.5,-2.71 -24.6,8.78 -43.2,23.63 -55.7,44.67 -16,10.38 -18.3,16.62 -37.5,20.75 -24.6,5.24 -49.9,-3.3 -68.6,-19.21 -38.8,-32.77 -24,-70.84 -35.7,-111.09 -2.5,-8.67 -5.4,-16.33 -8.6,-23.28 -0.8,-24.93 -6.8,-49.62 -25.5,-74.08 -43.2,-56.64 -101.2,-62.59 -165.4,-39.9 -64.9,22.86 -139.2,52.51 -197.4,88.87 -43.9,27.41 -42.1,78.09 -49.9,121.46 -9.2,7.67 -17.8,16.92 -25.3,28 -3.1,5.71 -7.2,10.67 -12.2,14.97 -10.8,5.3 -9.9,6.48 -26.6,8.01 -11.8,1.06 -22.5,-1.24 -33.3,-3.47 -12.6,-2.6 -25.3,-5.25 -40.2,-2.77 -48.8,8.13 -76.6,38.24 -100.3,78.5 -12.7,21.39 -23.4,43.72 -50.7,47.79 -67.3,10.14 -63.3,-101.48 -57.2,-142.8 6.2,-42.19 22.5,-83.33 47.6,-117.69 41.7,-56.81 101.2,-84.75 112.1,-161.71 1.4,-9.78 11,-13.2 19.4,-10.67 64.2,19.39 69.8,-84.21 81.9,-121.99 11.3,-35.77 26.3,-71.55 49.5,-101.54 19.4,-24.93 44.1,-47.33 72.7,-61.29 39.7,-19.51 110.1,-9.79 134.5,-49.92 35.8,-58.64 -14.9,-138.67 46.1,-189.77" /></g><g
             transform="scale(1.58017)"
             id="g146"><path
               id="path148"
               style="fill:#ffffff;fill-opacity:1;fill-rule:nonzero;stroke:none"
               d="m 16222.7,5281.07 c 14.4,-5.57 31.7,-14.87 47,-15.5 8,-5.13 21.6,-0.45 23.7,11.07 0.8,1.14 2,2.03 2.9,3.61 3.7,6.26 3.5,12.02 -0.5,18.1 -1.4,2.28 -2.8,4.62 -4.3,6.9 l -0.6,0.57 c -5.1,32.59 -17.5,65.43 -47.9,81.44 -20.1,10.7 -32.8,4.81 -41.6,30.44 -7.3,21.08 -3.4,37.97 -15.1,58.66 -22.3,39.56 -107.9,92.91 -130,24.88 -8.5,-26.2 1.3,-57.46 19.6,-77.34 19.6,-21.51 27.9,-19.68 31.3,-51.95 1.4,-12.97 -2.1,-23.55 4.5,-35.89 17.4,-32.65 79.6,-42.96 111,-54.99" /></g><g
             transform="scale(1.53584)"
             id="g150"><path
               id="path152"
               style="fill:#ffffff;fill-opacity:1;fill-rule:nonzero;stroke:none"
               d="m 15890.1,4984.24 c 0.9,-0.58 1.6,-1.43 2.7,-1.89 83.8,-37.96 206.7,-69.99 256.3,27.22 21.3,-10.22 44.8,-6.25 63.4,17.19 33.1,41.6 3.2,131.59 4.1,176.19 1.6,85.62 83.4,243.25 -58.4,229.32 -102.9,-9.96 -56.1,62.44 -92.3,118.7 -22.5,35.09 -59,33.07 -95.1,24.55 -52.7,-12.44 -93.4,-7.3 -120.5,46.35 -27.7,55.09 -23.2,112.12 -11.6,169.75 9.9,49.42 9.9,92.06 -34.8,122.21 -6.6,4.43 -17,3.84 -21.6,-3.45 -85.2,-134.97 -74.4,-265 -25.5,-409.74 25.5,-75.47 4.2,-151.39 36.6,-224.44 42.2,-95.97 79.3,-171.31 70,-280.17 -1.4,-15.96 18.3,-20.84 26.7,-11.79" /></g><g
             transform="scale(1.56191)"
             id="g154"><path
               id="path156"
               style="fill:#ffffff;fill-opacity:1;fill-rule:nonzero;stroke:none"
               d="m 15584.6,6101.77 c 26.5,37.32 70.2,59.6 88.2,102.37 7.6,18.12 4.4,41.11 12.5,58.07 25.2,53.14 66.1,61.59 115.2,64.03 78.4,3.97 146.8,32.46 171.6,113.25 20.8,67.94 15.7,127.28 70.2,183.31 45.5,46.86 94.1,87.77 151.3,119.72 41,22.92 106.4,71.96 42.5,114.03 -11.4,7.49 -26.1,5.89 -37.1,12.55 -17.9,10.88 -26.9,30.03 -39.7,45.01 -12.3,14.59 -22.8,26.31 -39.8,35.4 -35.3,19.08 -77.5,18.82 -117,16.78 -0.1,2.62 -0.7,5.31 -2.7,7.94 -80.3,108.77 -314.9,-305.78 -343.7,-361.61 -59.5,-115.37 -107.6,-236.12 -154.4,-357.07 -18.4,-47.57 -93.6,-165.69 -45.5,-215.31 52.2,-53.78 103.6,26.76 128.4,61.53" /></g></g></g><g
         transform="scale(1.68912)"
         id="g158"><path
           id="path160"
           style="fill:#ffffff;fill-opacity:1;fill-rule:nonzero;stroke:none"
           d="m 15037.5,1937.16 1110.8,1523.33 151.7,-110.7 -1110.8,-1523.28 -151.7,110.65" /></g><g
         transform="scale(1.64947)"
         id="g162"><path
           id="path164"
           style="fill:#ffffff;fill-opacity:1;fill-rule:nonzero;stroke:none"
           d="m 15007.1,2269.46 1137.5,1560.02 155.4,-113.43 -1137.5,-1559.9 -155.4,113.31" /></g><g
         transform="scale(1.99183)"
         id="g166"><path
           id="path168"
           style="fill:#7556bc;fill-opacity:1;fill-rule:nonzero;stroke:none"
           d="m 15886.1,4826.72 -244.9,36.4 -516.5,77.72 -774.2,116.02 h -0.3 c -79.9,147.25 -193.1,279.49 -337.4,384.77 -207.2,151.12 -447.7,223.92 -685.8,223.92 -299,0 -594.5,-114.62 -816.9,-333.01 l -732.2,109.95 509.2,698.75 542.2,-81.48 3250.6,-487.64 188,-28.02 c 20.9,-30.17 32,-65.11 32,-99.6 0.1,-31.88 -9.2,-63.41 -28.9,-90.37 l -118.4,-162.32 -51.1,-70.13 -215.4,-294.96" /></g><g
         transform="scale(1.75357)"
         id="g170"><path
           id="path172"
           style="fill:#7b8ff2;fill-opacity:1;fill-rule:nonzero;stroke:none"
           d="m 16300,5743.94 v 0 c -32.2,59.25 -69.1,116.45 -110.7,170.85 -3.9,-2.22 -7.6,-4.51 -11.5,-6.9 -29.5,-18.36 -58.6,-38.38 -94.2,-38.38 -1.6,0 -3.1,0.06 -4.6,0.11 -75.3,3.82 -115.1,83.6 -130.6,151.01 -23.7,23.89 -50.6,42.2 -79.9,56.06 -28,4.39 -56.2,6.84 -84.4,6.84 -2.9,0 -5.7,0 -8.6,-0.06 -21.1,-0.4 -44.3,-2.85 -67.1,-2.85 -21.4,0 -42.4,2.17 -61.3,10.1 -44.8,18.99 -50,60.33 -68.5,98.94 -17.6,37.01 -41.1,59.7 -77.8,59.7 -6.3,0 -12.9,-0.68 -20,-2.05 -7.1,-1.37 -13.8,-1.94 -20.3,-1.94 -19,0 -36,4.96 -53.3,9.87 -17.3,4.96 -34.7,9.86 -54.5,9.86 -2.6,0 -5.4,-0.06 -8.2,-0.28 -26,-1.77 -50.7,-11.75 -76.3,-16.14 -11.3,-1.94 -21.9,-2.97 -32.1,-2.97 -42.2,0 -74.9,17 -106.7,51.27 -41.6,44.99 -88.6,108.81 -146.7,129.28 -36.4,-4.28 -72.7,-10.04 -108.7,-17.34 -54.5,-39.12 -77.6,-137.94 -11,-177.75 19.5,-11.63 34.8,-12.37 54.6,-26.63 26.5,-19.1 39.3,-40.15 51.2,-70.6 12.2,-30.85 17.5,-63.98 28.1,-95.29 19.5,-57.48 48.1,-94.21 103.4,-114.97 l -527.9,79.1 -123.9,18.53 c 31.2,22.87 57.9,56.29 13,85.83 -10.1,6.67 -23.2,5.25 -33.1,11.17 -15.9,9.7 -23.9,26.75 -35.3,40.1 -9.4,11.23 -17.7,20.52 -29.6,28.11 -53.9,-38.78 -105.2,-81.95 -153.6,-129.45 v 0 c 252.5,248.06 588.2,378.26 927.8,378.26 270.5,0 543.6,-82.69 779,-254.34 164,-119.59 292.5,-269.79 383.3,-437.05 m -67,21.27 c -18.1,0 -39.4,4.1 -50,5.13 -8.7,0.91 -16.7,1.37 -24.1,1.37 -9.7,0 -18.5,-0.8 -26.8,-2.62 l -98.8,14.88 -215.1,32.22 c 16.1,6.44 30,14.03 43.6,26.69 7.4,6.84 14.8,21.15 23.1,27.26 21.2,15.28 34.4,21.27 43.6,21.27 18.8,0 19.9,-25.61 36.9,-47.39 19.1,-24.35 36.7,-31.02 59.2,-31.02 12.6,0 26.6,2.11 43.4,4.39 38.7,5.41 77.4,11.86 116.1,17.45 4.4,0.57 8.7,1.25 13,1.88 6.5,1.99 12.5,3.02 17.9,3.02 25.9,0 41.1,-22.47 45.8,-67.46 -5.5,-5.36 -16,-7.07 -27.8,-7.07" /></g><g
         transform="scale(1.75357)"
         id="g174"><path
           id="path176"
           style="fill:#ffffff;fill-opacity:1;fill-rule:nonzero;stroke:none"
           d="m 16300,5743.94 h -0.6 l -167.3,25.15 c 8.3,1.82 17.1,2.62 26.8,2.62 7.4,0 15.4,-0.46 24.1,-1.37 10.6,-1.03 31.9,-5.13 50,-5.13 11.8,0 22.3,1.71 27.8,7.07 -4.7,44.99 -19.9,67.46 -45.8,67.46 -5.4,0 -11.4,-1.03 -17.9,-3.02 -4.3,-0.63 -8.6,-1.31 -13,-1.88 -38.7,-5.59 -77.4,-12.04 -116.1,-17.45 -16.8,-2.28 -30.8,-4.39 -43.4,-4.39 -22.5,0 -40.1,6.67 -59.2,31.02 -17,21.78 -18.1,47.39 -36.9,47.39 -9.2,0 -22.4,-5.99 -43.6,-21.27 -8.3,-6.11 -15.7,-20.42 -23.1,-27.26 -13.6,-12.66 -27.5,-20.25 -43.6,-26.69 l -717.9,107.49 c -55.3,20.76 -83.9,57.49 -103.4,114.97 -10.6,31.31 -15.9,64.44 -28.1,95.29 -11.9,30.45 -24.7,51.5 -51.2,70.6 -19.8,14.26 -35.1,15 -54.6,26.63 -66.6,39.81 -43.5,138.63 11,177.75 36,7.3 72.3,13.06 108.7,17.34 58.1,-20.47 105.1,-84.29 146.7,-129.28 31.8,-34.27 64.5,-51.27 106.7,-51.27 10.2,0 20.8,1.03 32.1,2.97 25.6,4.39 50.3,14.37 76.3,16.14 2.8,0.22 5.6,0.28 8.2,0.28 19.8,0 37.2,-4.9 54.5,-9.86 17.3,-4.91 34.3,-9.87 53.3,-9.87 6.5,0 13.2,0.57 20.3,1.94 7.1,1.37 13.7,2.05 20,2.05 36.7,0 60.2,-22.69 77.8,-59.7 18.5,-38.61 23.7,-79.95 68.5,-98.94 18.9,-7.93 39.9,-10.1 61.3,-10.1 22.8,0 46,2.45 67.1,2.85 2.9,0.06 5.7,0.06 8.6,0.06 28.2,0 56.4,-2.45 84.4,-6.84 29.3,-13.86 56.2,-32.17 79.9,-56.06 15.5,-67.41 55.3,-147.19 130.6,-151.01 1.5,-0.05 3,-0.11 4.6,-0.11 35.6,0 64.7,20.02 94.2,38.38 3.9,2.39 7.6,4.68 11.5,6.9 41.6,-54.4 78.5,-111.6 110.7,-170.85" /></g><g
         transform="scale(1.56061)"
         id="g178"><path
           id="path180"
           style="fill:#ffffff;fill-opacity:1;fill-rule:nonzero;stroke:none"
           d="m 16234.9,6765.8 -267.7,40.18 h -0.4 c 54.4,53.37 112.1,101.88 172.7,145.45 13.3,-8.52 22.6,-18.97 33.2,-31.59 12.8,-14.99 21.8,-34.15 39.7,-45.04 11,-6.67 25.8,-5.07 37.2,-12.56 50.4,-33.19 20.4,-70.75 -14.7,-96.44" /></g><g
         transform="scale(1.40597)"
         id="g182"><path
           id="path184"
           style="fill:#f2f6fc;fill-opacity:1;fill-rule:nonzero;stroke:none"
           d="m 16069.6,6865.37 h -0.5 l 230.9,316.94 -230.4,-316.94" /></g><g
         transform="scale(1.90803)"
         id="g186"><path
           id="path188"
           style="fill:#7556bc;fill-opacity:1;fill-rule:nonzero;stroke:none"
           d="m 16129.8,4415.65 -1008.5,151.62 c 9.2,86.17 9.1,172.8 0,258.44 L 16300,4649.19 16129.8,4415.65 M 12716,4927.44 h -0.1 l -874.7,131.44 169.8,233.54 780.9,-117.19 c -34.5,-80.55 -59.7,-163.62 -75.9,-247.79" /></g><g
         transform="scale(1.77113)"
         id="g190"><path
           id="path192"
           style="fill:#7b8ff2;fill-opacity:1;fill-rule:nonzero;stroke:none"
           d="m 16290.1,4920.29 h -0.1 l -96,14.34 c 0.5,3.05 1.3,6.21 2.2,9.49 -4.9,11.68 -8.6,23.54 -8,37.09 1.1,22.02 12.8,38.9 32.2,48.73 10.4,5.19 20.1,1.97 30.3,10.67 6.2,5.42 11,18.35 16.8,25.07 7.7,8.86 18,18.18 29.6,25.24 -0.9,36.08 -3.2,71.98 -7,107.78 v 0 c 9.8,-92.26 9.9,-185.59 0,-278.41 m -168.9,25.24 -523.6,78.37 c -3.9,10.33 -9.1,20.44 -15.7,30.03 -40.4,59.01 -100.8,75.66 -165.3,75.66 -12.1,0 -24.2,-0.56 -36.5,-1.58 -12.9,-1.98 -26,-2.99 -39.1,-2.99 -4.7,0 -9.4,0.17 -14,0.39 -23.6,8.42 -41.4,22.64 -53.4,42.8 -15.3,9.94 -17.5,15.92 -35.9,19.88 -4.8,1.01 -9.5,1.46 -14.2,1.46 -18.8,0 -37.2,-7.67 -51.6,-19.87 -27.7,-23.49 -26.8,-49.8 -29.3,-77.69 l -20.9,3.11 -436.5,65.49 c -3,5.25 -6.8,9.82 -11.4,13.83 -10.4,5.08 -9.5,6.21 -25.5,7.68 -2,0.17 -3.9,0.23 -5.8,0.23 -9.1,0 -17.6,-1.81 -26.2,-3.56 -8.6,-1.81 -17.3,-3.61 -26.8,-3.61 -0.5,0 -1.2,0.05 -1.8,0.05 l -19.9,3 c -40.7,10.05 -65,37.37 -86.1,73.11 -12.1,20.5 -22.4,41.9 -48.5,45.79 -2.7,0.45 -5.4,0.62 -7.9,0.62 -39.3,0 -49.3,-48.5 -49.8,-90.67 l -676.3,101.23 h -0.3 c 17.4,90.68 44.5,180.17 81.7,266.95 v 0 c -34,-79.5 -59.7,-161.31 -77.1,-244.2 16.5,15.59 30.5,36.59 40.1,49.92 23.3,32.91 61.9,52.56 77.7,90.28 6.7,15.97 3.9,36.25 11.1,51.21 9.1,19.19 20.5,31.73 33.7,40.08 l 561.8,-84.06 1370.6,-205.58 c -8.2,-11.8 -15.3,-23.83 -18.3,-36.53 -3.5,-15.53 4.8,-29.47 10.6,-43.19 18.4,-43.2 38.7,-85.99 58.6,-128.45 12.2,-26.09 21.6,-47.82 43,-47.82 6.4,-0.06 14,1.92 23,6.32 30.3,14.68 57.7,40.26 84.9,60.19 25,18.29 75.7,71.08 111.7,71.08 13,0 24,-6.83 31.4,-24.5 13.8,-7.34 24.8,-22.14 28.2,-43.42 3.4,-22.36 -4.1,-43.93 -16.7,-63.86 -1.1,-2.09 -2.1,-4.23 -3.3,-6.49 -11.6,-21.12 -24.9,-45.79 -30.4,-70.69" /></g><g
         transform="scale(1.77082)"
         id="g194"><path
           id="path196"
           style="fill:#ffffff;fill-opacity:1;fill-rule:nonzero;stroke:none"
           d="m 16196.9,4935.52 -72.7,10.9 c 5.4,24.9 18.7,49.58 30.3,70.7 1.2,2.26 2.2,4.41 3.3,6.5 12.6,19.93 20.1,41.5 16.7,63.87 -3.4,21.28 -14.4,36.08 -28.2,43.42 -7.4,17.68 -18.4,24.51 -31.4,24.51 -36,0 -86.8,-52.8 -111.7,-71.1 -27.2,-19.93 -54.7,-45.51 -84.9,-60.19 -9,-4.41 -16.6,-6.39 -23,-6.33 -21.5,0 -30.8,21.74 -43.1,47.83 -19.9,42.47 -40.1,85.27 -58.5,128.47 -5.9,13.73 -14.2,27.67 -10.7,43.2 3,12.71 10.1,24.74 18.4,36.54 l 31,-4.63 460.5,-69.52 0.1,-0.05 c 3.8,-35.81 6.2,-71.72 7,-107.81 -11.5,-7.06 -21.9,-16.37 -29.5,-25.24 -5.9,-6.72 -10.6,-19.65 -16.9,-25.07 -10.1,-8.7 -19.9,-5.48 -30.2,-10.68 -19.5,-9.82 -31.2,-26.71 -32.3,-48.73 -0.6,-13.55 3.1,-25.41 8,-37.1 -0.9,-3.28 -1.7,-6.44 -2.2,-9.49" /></g><g
         transform="scale(1.69481)"
         id="g198"><path
           id="path200"
           style="fill:#ffffff;fill-opacity:1;fill-rule:nonzero;stroke:none"
           d="m 16300,5250.15 -475.5,71.15 c 2.6,29.15 1.7,56.65 30.7,81.19 15,12.75 34.2,20.77 53.9,20.77 4.9,0 9.9,-0.47 14.8,-1.53 19.2,-4.13 21.5,-10.39 37.5,-20.77 12.5,-21.07 31.1,-35.93 55.8,-44.72 4.9,-0.24 9.8,-0.42 14.7,-0.42 13.7,0 27.4,1.06 40.9,3.13 12.8,1.06 25.5,1.65 38.1,1.65 67.4,0 130.5,-17.41 172.8,-79.06 6.9,-10.03 12.3,-20.6 16.3,-31.39 m -953.5,142.85 -101.8,15.28 c 0.6,0 1.3,-0.06 1.8,-0.06 10,0 19,1.89 28.1,3.77 8.9,1.83 17.8,3.72 27.3,3.72 2,0 4,-0.06 6.1,-0.24 16.7,-1.53 15.7,-2.71 26.6,-8.02 4.9,-4.19 8.8,-8.97 11.9,-14.45 m -122.7,18.4 -146.1,21.9 -54.8,8.25 c 0.6,44.08 11,94.76 52,94.76 2.7,0 5.4,-0.17 8.3,-0.65 27.3,-4.07 38,-26.43 50.7,-47.85 22,-37.35 47.4,-65.9 89.9,-76.41" /></g><g
         transform="scale(1.50667)"
         id="g202"><path
           id="path204"
           style="fill:#ffffff;fill-opacity:1;fill-rule:nonzero;stroke:none"
           d="m 16108.8,6266.78 c 20.5,97.43 50.6,193.6 90.6,287.06 h 0.1 0.5 l 100,-14.94 c -15.6,-9.82 -29,-24.56 -39.7,-47.12 -8.4,-17.59 -5.1,-41.42 -13,-60.2 -18.6,-44.34 -63.9,-67.43 -91.4,-106.13 -11.2,-15.66 -27.7,-40.35 -47.1,-58.67" /></g><g
         transform="scale(1.7669)"
         id="g206"><path
           id="path208"
           style="fill:#7556bc;fill-opacity:1;fill-rule:nonzero;stroke:none"
           d="m 16116.2,2984.72 -624.1,93.61 v 0 l 90.4,124 -145.1,105.83 -145.8,-199.89 -304.6,45.73 h -0.1 l 183.8,252.13 v 0 l 1129.3,-169.28 -183.8,-252.13" /></g><g
         transform="scale(1.26493)"
         id="g210"><path
           id="path212"
           style="fill:#f2f6fc;fill-opacity:1;fill-rule:nonzero;stroke:none"
           d="m 16043.2,5139.33 h -0.5 l 256.7,352.27 h 0.6 v -0.64 l -256.8,-351.63" /></g><g
         transform="scale(1.62279)"
         id="g214"><path
           id="path216"
           style="fill:#7556bc;fill-opacity:1;fill-rule:nonzero;stroke:none"
           d="m 16099.9,3467.05 -0.4,0.06 -352.7,52.57 -1625.1,243.9 -854,127.93 -762.3,114.49 h -0.5 0.5 l 200.1,274.09 v 0.5 l 469.6,-70.25 1146.7,-172.24 1425,-213.58 552.9,-82.82 0.3,-0.06 -200.1,-274.59" /></g><g
         transform="scale(1.68912)"
         id="g218"><path
           id="path220"
           style="fill:#ffffff;fill-opacity:1;fill-rule:nonzero;stroke:none"
           d="m 16205.5,3220.07 -209.7,31.32 v 0 l 152.5,209.1 151.7,-110.7 -94.5,-129.72" /></g><g
         transform="scale(1.64449)"
         id="g222"><path
           id="path224"
           style="fill:#ffffff;fill-opacity:1;fill-rule:nonzero;stroke:none"
           d="m 16102.4,3388.77 -215,32.53 197.5,270.97 215.1,-32.6 -197.6,-270.9" /></g><g
         transform="scale(1.47164)"
         id="g226"><path
           id="path228"
           style="fill:#ffffff;fill-opacity:1;fill-rule:nonzero;stroke:none"
           d="m 14486.6,4586.05 847.3,1162.04 c 50,68.42 145.9,83.44 214.4,33.5 l 668.2,-487.15 c 68.4,-49.94 83.5,-145.96 33.5,-214.45 l -847.3,-1161.98 c -49.9,-68.49 -146,-83.51 -214.5,-33.56 l -668.1,487.21 c -68.4,49.87 -83.5,145.96 -33.5,214.39" /></g><g
         transform="scale(1.60112)"
         id="g230"><path
           id="path232"
           style="fill:#101c3a;fill-opacity:1;fill-rule:nonzero;stroke:none"
           d="m 16263.1,8975.23 36.9,-7727.35 -308.5,41.1 -1420.2,1218.52 -238.2,174 -1400.9,1021.66 c -97.7,71.27 -124.1,202.36 -58.6,291.99 l 46.8,65.08 202.8,278.3 h 0.5 l 1233.4,1690.07 h -0.4 l 202.8,278.31 338.7,463.68 633.5,1201.59 731.4,1003.05" /></g><g
         transform="scale(1.37069)"
         id="g234"><path
           id="path236"
           style="fill:#7109b5;fill-opacity:1;fill-rule:nonzero;stroke:none"
           d="m 7798.69,16300 -365.81,-56.6 v -0.2 l 2.34,-22.8 c 4.81,-30.3 13.42,-61.4 28.82,-93.7 19.77,-41.9 47.57,-78.1 80.69,-107.6 l 253.96,280.9" /></g><g
         id="g238"><g
           clip-path="url(#clipPath244)"
           id="g240"><g
             transform="scale(1.56969)"
             id="g246"><path
               id="path248"
               style="fill:#101c3a;fill-opacity:1;fill-rule:nonzero;stroke:none"
               d="M 16300,12372.8 V -518.064 c 0,-540.556 -439.8,-980.326 -980.6,-980.326 h -2578.6 v 1.85 H 9487.24 c -212.27,12.61 -406.7,92.88 -561.32,219.66 -220.11,179.97 -360.58,453.214 -360.58,758.816 V 12372.8 c 0,540.5 440.15,980.3 980.64,980.3 h 5773.42 c 540.8,0 980.6,-439.8 980.6,-980.3" /></g><g
             transform="scale(1.5487)"
             id="g250"><path
               id="path252"
               style="fill:#ebf1fd;fill-opacity:1;fill-rule:nonzero;stroke:none"
               d="M 16300,12540.6 V -525.214 c 0,-426.681 -346,-772.646 -773,-772.646 H 9675.22 c -426.69,0 -772.65,345.965 -772.65,772.646 V 12540.6 c 0,426.6 345.96,772.6 772.65,772.6 H 15527 c 427,0 773,-346 773,-772.6" /></g><g
             transform="scale(1.29182)"
             id="g254"><path
               id="path256"
               style="fill:#101c3a;fill-opacity:1;fill-rule:nonzero;stroke:none"
               d="m 16211.8,15806.2 h -2184.1 c -48.8,0 -88.2,-39.5 -88.2,-88.3 0,-48.7 39.4,-88.2 88.2,-88.2 h 2184.1 c 48.7,0 88.2,39.5 88.2,88.2 0,48.8 -39.5,88.3 -88.2,88.3" /></g><g
             transform="scale(1.19969)"
             id="g258"><path
               id="path260"
               style="fill:#101c3a;fill-opacity:1;fill-rule:nonzero;stroke:none"
               d="m 12401.7,15945 -39.9,39.8 315.1,315.2 39.9,-39.9 -315.1,-315.1" /></g><g
             transform="scale(1.19969)"
             id="g262"><path
               id="path264"
               style="fill:#101c3a;fill-opacity:1;fill-rule:nonzero;stroke:none"
               d="m 12676.9,15945 -315.1,315.1 39.9,39.9 315.1,-315.2 -39.9,-39.8" /></g><g
             transform="scale(1.48279)"
             id="g266"><path
               id="path268"
               style="fill:#101c3a;fill-opacity:1;fill-rule:nonzero;stroke:none"
               d="m 16300,12937.4 h -409 v 45.7 h 409 v -45.7" /></g></g></g><g
         transform="scale(1.52226)"
         id="g270"><path
           id="path272"
           style="fill:#390d9f;fill-opacity:1;fill-rule:nonzero;stroke:none"
           d="m 10870.1,16229.5 c 46,-59.5 35.1,-145.1 -24.4,-191.1 -59.6,-46.1 -145.1,-35.1 -191.1,24.4 -46.1,59.5 -35.2,145.1 24.4,191.2 59.4,46 145,35.1 191.1,-24.5" /></g><path
         id="path274"
         style="fill:#390d9f;fill-opacity:1;fill-rule:nonzero;stroke:none"
         d="m 9711.07,14988.4 c 70.08,-90.6 53.42,-220.9 -37.18,-291 -90.65,-70.1 -220.9,-53.4 -290.98,37.2 -70.08,90.6 -53.45,220.8 37.17,291 90.6,70 220.9,53.4 290.99,-37.2" /><g
         transform="scale(1.34378)"
         id="g276"><path
           id="path278"
           style="fill:#425fec;fill-opacity:1;fill-rule:nonzero;stroke:none"
           d="m 13576,16187.2 c -16.9,-36.1 -59.7,-51.6 -95.8,-34.8 -36.1,16.9 -51.8,59.8 -34.9,95.9 16.9,36.1 59.8,51.7 96,34.8 36,-16.8 51.6,-59.8 34.7,-95.9" /></g><g
         transform="scale(1.76483)"
         id="g280"><path
           id="path282"
           style="fill:#131313;fill-opacity:1;fill-rule:nonzero;stroke:none"
           d="M 16300,1089.51 H 5088.21 v 85.22 H 16300 v -85.22" /></g><g
         id="g284"><g
           clip-path="url(#clipPath290)"
           id="g286"><g
             transform="scale(1.46934)"
             id="g292"><path
               id="path294"
               style="fill:#101c3a;fill-opacity:1;fill-rule:nonzero;stroke:none"
               d="m 15907.2,-5995.76 c 94.8,-450.48 228.7,-795.53 -60.7,-1213 0,0 -465.1,295.1 -1028,-70.24 -424.4,-275.77 -1272.8,-136.86 -1272.8,-136.86 -74.5,240.38 -139.9,1165.56 -171.8,2255.37 -22.2,753.4 -28.2,1585.75 -10.1,2325.2 1,48.93 2.2,101.61 3.5,157.15 36.8,1997.835 -35,8144.96 -35,8144.96 l 2033.1,-55.6 c 0,0 40,-368.4 380,-2529.51 285.1,-1815.38 275.3,-4576.83 357.2,-6177.07 15.2,-304.43 34,-566.79 58.8,-772.87 138.6,-1153.04 -249.9,-1425.41 -265.5,-1792.51 -1.7,-43.15 1.4,-87.45 11.3,-135.02" /></g><g
             transform="scale(1.2118)"
             id="g296"><path
               id="path298"
               style="fill:#101c3a;fill-opacity:1;fill-rule:nonzero;stroke:none"
               d="m 16230.4,-813.995 c -3,-48.191 -6,-96.467 -9,-144.165 -58.6,-908.56 -153.5,-1778.01 -286.1,-2586.64 -0.1,-2.89 -0.9,-5.77 -1.5,-8.5 -21.7,-132.12 -44.3,-262.33 -68,-391.4 -22.2,-121.63 -45.5,-241.37 -69.8,-359.46 -151.6,34.08 -303.9,66.51 -456.7,97.7 -161.4,32.85 -322.9,64.04 -485.7,93.5 -139.3,25.42 -278.7,49.68 -419.2,72.79 -659,109.67 -1327.1,195.49 -1996.6,265.8 68.9,605.04 203.7,1122.62 321,2927.202 47.5,728.833 102.9,1537.958 159.4,2332.558 98.8,1387.76 198.8,2731.05 257.9,3519.79 1.4,17.25 2.8,33.84 3.6,50.51 31.8,416.15 50.6,665.29 50.6,665.29 l 1961.1,167.51 858.2,73.53 c 21,-202.18 40.9,-404.27 59,-606.86 0.9,-5.2 1.1,-10.4 1.4,-15.6 11.3,-120.4 22,-241.37 31.5,-362.27 17.3,-207.71 33.3,-415.99 47.8,-623.53 15.4,-231.81 29.8,-463.03 41.9,-693.51 48.3,-899 68.8,-1792.04 60.4,-2663.966 -0.1,-47.285 -0.8,-94.984 -1.4,-142.266 -7.6,-566.595 -27.4,-1123.944 -59.8,-1668.013" /></g><g
             transform="scale(1.21275)"
             id="g300"><path
               id="path302"
               style="fill:#ffffff;fill-opacity:1;fill-rule:nonzero;stroke:none"
               d="m 16239,-1593.98 -58.6,1.89 c 0.2,7.84 26.4,793.327 38.1,2004.048 11.8,1211.462 22.8,1683.532 23,1688.142 l 58.5,-1.31 c 0,-4.62 -11,-476.44 -22.8,-1687.328 -11.8,-1211.546 -38,-1997.692 -38.2,-2005.442" /></g><g
             transform="scale(1.44245)"
             id="g304"><path
               id="path306"
               style="fill:#101c3a;fill-opacity:1;fill-rule:nonzero;stroke:none"
               d="m 14481.1,11474.8 c 527.3,-650.1 929,-580 604.6,-1302.3 -324.2,-722.42 875.3,-347.16 809.3,-1078.14 -65.9,-730.97 -632.4,-678.36 -113.7,-1286.07 518.7,-607.78 -576.8,-1718.46 -576.8,-1718.46 h -3258.8 c 0,0 -1171.9,552.81 -847.7,1476.03 324.1,923.15 -239.8,932.09 541.4,1575.78 499.4,411.39 40.4,660.96 40.4,1262.26 0,664.7 660.1,976 963.7,912 303.7,-64 959.2,1241.5 1837.6,158.9" /></g><g
             transform="scale(1.16902)"
             id="g308"><path
               id="path310"
               style="fill:#425fec;fill-opacity:1;fill-rule:nonzero;stroke:none"
               d="m 14019.5,10356.7 c -592.3,-761.18 -2371.2,-2957.97 -2758.7,-4146.56 -387.5,-1188.6 1197,-2534.85 2104.6,-1615.8 907.5,919.14 2476.7,3021.84 2631.3,3497.19 303.3,933.26 -1066.2,3435.87 -1977.2,2265.17" /></g><path
             id="path312"
             style="fill:#ffffff;fill-opacity:1;fill-rule:nonzero;stroke:none"
             d="m 14304.2,9240.2 1182.1,1667.1 -43.3,30.6 -1182.1,-1667 43.3,-30.7" /><g
             transform="scale(1.63951)"
             id="g314"><path
               id="path316"
               style="fill:#425fec;fill-opacity:1;fill-rule:nonzero;stroke:none"
               d="m 13944.9,7390.81 c 438.2,-529.98 1752.6,-2058.05 2053.9,-2896.97 301.2,-838.97 -799.7,-1831.95 -1465.9,-1196.09 -666.3,635.87 -1829,2101.36 -1949.3,2436.83 -235.9,658.73 687.3,2471.35 1361.3,1656.23" /></g><g
             transform="scale(1.48561)"
             id="g318"><path
               id="path320"
               style="fill:#101c3a;fill-opacity:1;fill-rule:nonzero;stroke:none"
               d="m 15888.2,4936.03 c -17.9,158.32 -1633.1,2431.8 -1725.6,2507.79 -162.9,-447.69 -215.6,-947.35 -84.5,-1226.16 155.5,-331.31 1405.5,-1642.43 2221.9,-2329.55 -34.5,60.04 -68.3,119.27 -101.9,175.62 -157,263.05 -275.4,567.04 -309.9,872.3" /></g><g
             transform="scale(1.44464)"
             id="g322"><path
               id="path324"
               style="fill:#425fec;fill-opacity:1;fill-rule:nonzero;stroke:none"
               d="m 15928.1,5820.81 c 99.2,291.35 18.9,2555.58 -451.4,2773.28 -93.7,43.33 -1080.3,217.35 -2025.1,206.62 -889,-10.03 -1737.6,-203.64 -1869.9,-206.62 -220.4,-4.99 -627.2,-1613.2 -732,-2252.74 -60.1,-342.43 -4.9,-613.99 203.5,-1112.66 302,-848.79 -432,-2751.61 -432,-2751.61 0,0 3057.1,-1213.1 5678.8,24.16 0,0 -766.1,2161.85 -371.9,3319.57" /></g><g
             transform="scale(1.00249)"
             id="g326"><path
               id="path328"
               style="fill:#ffffff;fill-opacity:1;fill-rule:nonzero;stroke:none"
               d="m 15672.6,4961.54 -48.8,20.45 c 253.2,603.4 635.1,1736.08 347.7,2543.96 -308.1,737.07 -238.9,1047.89 -153.6,1534.38 66.3,404.29 116,660.46 179.6,1046.07 63,382.2 128.1,777.3 210.9,1171.1 l 51.7,-10.9 c -82.5,-392.6 -147.5,-787.1 -210.4,-1168.9 -63.7,-386.19 -113.1,-640.46 -179.7,-1046.14 -83.3,-475.22 -153.3,-778.87 150.8,-1506.55 279.2,-784.65 -35.3,-1837.92 -348.2,-2583.47" /></g><g
             transform="scale(1.42579)"
             id="g330"><path
               id="path332"
               style="fill:#ffffff;fill-opacity:1;fill-rule:nonzero;stroke:none"
               d="m 16217,4022.54 c -138.7,515.29 -259.5,1260 -48,1881.2 94,275.85 62.4,1059.83 4.8,1496.22 l 36.8,4.91 c 58.1,-439.97 89.4,-1231.95 -6.4,-1513.05 -208.6,-612.44 -88.6,-1349.29 48.7,-1859.6 l -35.9,-9.68" /></g><g
             transform="scale(1.26594)"
             id="g334"><path
               id="path336"
               style="fill:#f8a3a2;fill-opacity:1;fill-rule:nonzero;stroke:none"
               d="m 15895.5,10860.2 v -847.6 c 404.5,-1046.53 -498.8,-2352.83 -498.8,-2352.83 0,0 -846.5,1411.05 -462.5,2355.53 v 1218.3 c 0,0 363.9,-176.8 961.3,-373.4" /></g><g
             transform="scale(1.23582)"
             id="g338"><path
               id="path340"
               style="fill:#101c3a;fill-opacity:1;fill-rule:nonzero;stroke:none"
               d="m 16102.2,10631 c 63.5,61.9 128,305.7 197.8,328.7 v 207.7 c -633.1,201.4 -1018.8,382.5 -1018.8,382.5 v -707.6 c 48.3,-37.9 129.3,-250.2 228.6,-322.8 168.1,-122.7 388.8,-87.2 592.4,111.5" /></g><g
             transform="scale(1.25253)"
             id="g342"><path
               id="path344"
               style="fill:#f8a3a2;fill-opacity:1;fill-rule:nonzero;stroke:none"
               d="m 16290.3,11783 c -32.5,251 -45.8,424.3 -449.1,561 -431.3,146.3 -812.4,-40.7 -958.6,-472 -50.4,-148.9 42.4,-818.4 99.7,-1027.1 39.4,-144 393.4,-348.6 486.8,-395.4 39.1,-19.6 176.7,-34.2 230.1,2.4 111.5,76.4 434.9,293.1 470.7,390 75.5,204.3 130.1,866.8 120.4,941.1" /></g><g
             transform="scale(1.20403)"
             id="g346"><path
               id="path348"
               style="fill:#101c3a;fill-opacity:1;fill-rule:nonzero;stroke:none"
               d="m 16153.8,11555.7 -19.5,39.4 c 30.3,15.1 112.4,68.2 92,113.5 -73.8,163.9 -43.7,385.6 -42.4,395 l 43.6,-6.2 c -0.3,-2.1 -29.5,-218.5 39,-370.8 33.5,-74.4 -55.1,-142.4 -112.7,-170.9" /></g><g
             transform="scale(1.1819)"
             id="g350"><path
               id="path352"
               style="fill:#101c3a;fill-opacity:1;fill-rule:nonzero;stroke:none"
               d="m 15938.5,12390 -25.1,37.2 c 220.8,148.9 385,12.7 386.6,11.4 l -28.9,-34.2 c -5.7,4.7 -141,114.8 -332.6,-14.4" /></g><g
             transform="scale(1.23691)"
             id="g354"><path
               id="path356"
               style="fill:#101c3a;fill-opacity:1;fill-rule:nonzero;stroke:none"
               d="m 16267.7,11828.8 c -4.7,5.2 -116.8,128.4 -316.2,33.6 l -18.5,38.7 c 229.9,109.1 365.6,-42.6 367,-44.2 l -32.3,-28.1" /></g><g
             transform="scale(1.21617)"
             id="g358"><path
               id="path360"
               style="fill:#101c3a;fill-opacity:1;fill-rule:nonzero;stroke:none"
               d="m 15961.3,11224.1 c -118.1,0 -194.8,25 -198,26.1 l 13.8,41.4 c 0.7,-0.3 73.6,-23.9 184.2,-23.9 111.3,0 323.4,66.6 325.5,67.2 l 13.2,-41.5 c -9,-2.9 -220.7,-69.3 -338.7,-69.3" /></g><g
             transform="scale(1.26015)"
             id="g362"><path
               id="path364"
               style="fill:#101c3a;fill-opacity:1;fill-rule:nonzero;stroke:none"
               d="m 14943.6,12248.1 c 0,0 873.4,-457.3 1356.4,-584.5 0,0 -79.6,1231.2 -1356.4,584.5" /></g><g
             transform="scale(1.30554)"
             id="g366"><path
               id="path368"
               style="fill:#ffffff;fill-opacity:1;fill-rule:nonzero;stroke:none"
               d="m 14606.1,3456.12 c -131.6,0 -252.7,18 -354.8,60.74 l 15.7,37.46 c 614,-257.68 2000.8,439.28 2014.7,446.4 l 18.3,-36.23 c -48.2,-24.51 -1011.6,-508.37 -1693.9,-508.37" /></g><g
             transform="scale(1.20947)"
             id="g370"><path
               id="path372"
               style="fill:#101c3a;fill-opacity:1;fill-rule:nonzero;stroke:none"
               d="m 16300,11073.6 c -57,-9.2 -110.5,-12.1 -165,-14.3 -27.2,-0.8 -54.4,-1.4 -81.9,-1 -27.5,0.5 -55.2,1.2 -84.1,5.8 51.8,26.4 108.2,36.3 164.5,38.9 28.2,0.5 56.5,-0.5 84.5,-5 27.9,-4.4 55.9,-11.2 82,-24.4" /></g><g
             transform="scale(1.25053)"
             id="g374"><path
               id="path376"
               style="fill:#ffffff;fill-opacity:1;fill-rule:nonzero;stroke:none"
               d="m 14615.4,5927.9 -15.7,39.26 c 6.5,2.72 667.1,259.73 1700.3,58.94 l -8,-41.59 c -1021.2,198.56 -1670.2,-54.14 -1676.6,-56.61" /></g><g
             transform="scale(1.53829)"
             id="g378"><path
               id="path380"
               style="fill:#ffffff;fill-opacity:1;fill-rule:nonzero;stroke:none"
               d="m 16272.4,6054.37 -800.2,1060.46 27.5,20.8 800.3,-1060.46 -27.6,-20.8" /></g><g
             transform="scale(1.17258)"
             id="g382"><path
               id="path384"
               style="fill:#101c3a;fill-opacity:1;fill-rule:nonzero;stroke:none"
               d="m 16300,12347.5 c 0,-46.4 -37.6,-84 -84,-84 -46.3,0 -83.9,37.6 -83.9,84 0,46.3 37.6,83.9 83.9,83.9 46.4,0 84,-37.6 84,-83.9" /></g><g
             transform="scale(1.22825)"
             id="g386"><path
               id="path388"
               style="fill:#101c3a;fill-opacity:1;fill-rule:nonzero;stroke:none"
               d="m 16300,11787.9 c 0,-44.3 -35.9,-80.2 -80.2,-80.2 -44.3,0 -80.1,35.9 -80.1,80.2 0,44.2 35.8,80.1 80.1,80.1 44.3,0 80.2,-35.9 80.2,-80.1" /></g><g
             transform="scale(1.13994)"
             id="g390"><path
               id="path392"
               style="fill:#425fec;fill-opacity:1;fill-rule:nonzero;stroke:none"
               d="m 13362.3,4550.51 c 1017.1,475.99 1662.1,1196.9 2937.7,2427.06 0,0 -656,856.27 -1194.9,1188.92 0,0 -2452.1,-879.17 -2990.3,-1512.27 -1287.8,-1514.64 373.9,-2512.68 1247.5,-2103.71" /></g><g
             transform="scale(1.1052)"
             id="g394"><path
               id="path396"
               style="fill:#101c3a;fill-opacity:1;fill-rule:nonzero;stroke:none"
               d="m 14982.9,7265.41 c -192.9,495.38 -97.4,994.93 213,1115.82 310.6,120.79 718.6,-182.87 911.4,-678.25 192.7,-495.48 97.3,-995.03 -213.2,-1115.91 -310.5,-120.8 -718.5,182.86 -911.2,678.34" /></g><g
             transform="scale(1.14529)"
             id="g398"><path
               id="path400"
               style="fill:#f8a3a2;fill-opacity:1;fill-rule:nonzero;stroke:none"
               d="m 15068.6,7925.21 250.3,95 c 0,0 981.1,-116.04 766,-760.85 l -849.5,-606.22 c -191.1,-25.07 -383.2,239.41 -429.3,590.67 -46,351.26 71.6,656.34 262.5,681.4" /></g><g
             transform="scale(1.31406)"
             id="g402"><path
               id="path404"
               style="fill:#f8a3a2;fill-opacity:1;fill-rule:nonzero;stroke:none"
               d="m 13351.6,6990.19 c 504.2,234.54 295.8,157.3 787.6,313.46 498.2,158.14 810,2.59 968.8,-92.77 24.3,-12.86 996.3,-528.66 1156.5,-823.1 35.5,-65.06 -39.8,-167.42 -106.5,-120.62 -260,182.57 -1028,574.03 -1028,574.03 0,0 324.2,-720.59 245.5,-781.55 -45.1,-34.93 -304.2,-112.17 -518,-171.91 -152.9,-42.77 -264.4,70.24 -340.9,209.43 -92.7,168.48 -176.7,286.28 -221.9,307.74 -53.9,25.58 -135.5,-0.98 -191.3,-25.79 -1.3,-2.13 -2.9,-4.27 -4.1,-6.39 -183.8,-323.89 -653.6,-173.36 -798.3,-117.28 l 50.6,734.75" /></g><g
             transform="scale(1.2015)"
             id="g406"><path
               id="path408"
               style="fill:#d17f80;fill-opacity:1;fill-rule:nonzero;stroke:none"
               d="m 16300,6465.68 -387.3,756.48 c 0,0 319.1,-454.52 387.3,-756.48" /></g><g
             transform="scale(1.22194)"
             id="g410"><path
               id="path412"
               style="fill:#d17f80;fill-opacity:1;fill-rule:nonzero;stroke:none"
               d="m 16300,6423.53 -358,905.77 c 0,0 319.9,-603.87 358,-905.77" /></g><g
             transform="scale(1.00259)"
             id="g414"><path
               id="path416"
               style="fill:#ffffff;fill-opacity:1;fill-rule:nonzero;stroke:none"
               d="m 13679.3,7470.26 -42.8,52.46 c 687,558.46 2617.2,1393.9 2636.7,1402.28 l 26.8,-62.04 c -19.3,-8.38 -1941.1,-840.23 -2620.7,-1392.7" /></g><g
             transform="scale(1.05533)"
             id="g418"><path
               id="path420"
               style="fill:#ffffff;fill-opacity:1;fill-rule:nonzero;stroke:none"
               d="m 14834.1,5032.95 -38.8,51.27 c 484.1,367.37 1453.6,1184.09 1463.4,1192.23 l 41.3,-49.08 c -9.8,-8.15 -980.5,-826 -1465.9,-1194.42" /></g><g
             transform="scale(1.26296)"
             id="g422"><path
               id="path424"
               style="fill:#201030;fill-opacity:1;fill-rule:nonzero;stroke:none"
               d="m 15589.8,8333.58 710.2,-28.83 -5.7,-101.27 -359.9,11.48 -256.5,7.37 c -86.4,2.77 -101.2,-79.1 -106.3,-174.04 L 15460.3,5854.4 c -5.4,-95.01 0.9,-166.74 87.3,-169.44 l 616.1,-22.64 -11.9,-212.52 -710.7,16.95 c -86.4,2.77 -152.2,82.02 -146.8,176.8 l 129.3,2523.43 c 5.4,94.78 79.8,169.37 166.2,166.6" /></g><g
             transform="scale(1.30402)"
             id="g426"><path
               id="path428"
               style="fill:#390d9f;fill-opacity:1;fill-rule:nonzero;stroke:none"
               d="m 15061.8,7903.46 -124.2,-2443.82 c -4.9,-88.11 49.8,-162.04 124.2,-170.25 3.2,-0.23 6.4,-0.53 9.6,-0.53 l 947.4,-29.68 c 78.9,-2.68 146.9,69.79 151.9,161.73 l 124.2,2443.82 c 5.1,92.02 -54.9,168.4 -133.8,170.85 l -947.3,29.84 c -3.4,0.07 -6.6,0.15 -9.9,-0.24 -74.7,-3.45 -137.3,-73.54 -142.1,-161.72" /></g><g
             transform="scale(1.26119)"
             id="g430"><path
               id="path432"
               style="fill:#101c3a;fill-opacity:1;fill-rule:nonzero;stroke:none"
               d="m 16200.1,8178.86 c 56.4,-2.22 99.9,-49.95 97.4,-106.17 -2.5,-56.21 -50.2,-99.75 -106.1,-97.21 -56.3,2.22 -100,49.96 -97.5,106.17 2.5,56.22 50.1,99.75 106.2,97.21" /></g><g
             transform="scale(1.66589)"
             id="g434"><path
               id="path436"
               style="fill:#425fec;fill-opacity:1;fill-rule:nonzero;stroke:none"
               d="m 14632.2,3067.01 c -732.4,232.55 -1234.1,664.27 -2209,1385.5 0,0 368.9,639.3 705,912.97 0,0 1741.9,-378.54 2163.3,-760.13 1008.5,-913.21 -30.1,-1738.11 -659.3,-1538.34" /></g><g
             transform="scale(1.40067)"
             id="g438"><path
               id="path440"
               style="fill:#101c3a;fill-opacity:1;fill-rule:nonzero;stroke:none"
               d="m 16200,5536.78 c 100,407.38 -25.9,788.41 -281.2,851.1 -255.3,62.68 -543.4,-216.68 -643.4,-624.06 -100,-407.38 25.9,-788.41 281.2,-851.1 255.3,-62.68 543.4,216.69 643.4,624.06" /></g><g
             transform="scale(1.36571)"
             id="g442"><path
               id="path444"
               style="fill:#f8a3a2;fill-opacity:1;fill-rule:nonzero;stroke:none"
               d="m 16007.5,6372.13 -414.4,172.66 c 0,0 -246.7,-719.26 2.4,-1232.03 l 412,-16.55 c 161.5,0 292.5,240.9 292.5,537.96 0,297.06 -131,537.96 -292.5,537.96" /></g><g
             transform="scale(1.3342)"
             id="g446"><path
               id="path448"
               style="fill:#f8a3a2;fill-opacity:1;fill-rule:nonzero;stroke:none"
               d="m 15470.8,6949.32 c 0,0 148.7,32.15 248,45.5 99.2,13.26 142.3,-33.81 270.8,-146.68 137.3,-120.67 247.8,-172.84 260.6,-358.42 12.9,-185.51 49.8,-969.79 -274.7,-1066.26 -445.5,-132.28 -1056.6,255.66 -799.9,430.97 0,0 -262.4,122.03 -49,348 0,0 -207.3,264.73 54.4,376.18 0,0 -244.5,384.8 289.8,370.71" /></g><g
             transform="scale(1.2849)"
             id="g450"><path
               id="path452"
               style="fill:#d17f80;fill-opacity:1;fill-rule:nonzero;stroke:none"
               d="m 15763.5,6831.06 c 65,16.58 128.5,18.6 191.6,17.2 63.2,-2.88 282.7,-10.9 344.9,-32.14 -64.4,-16.66 -284.9,-17.12 -348.4,-15.65 -63.3,3.04 -126.5,9.58 -188.1,30.59" /></g><g
             transform="scale(1.28785)"
             id="g454"><path
               id="path456"
               style="fill:#d17f80;fill-opacity:1;fill-rule:nonzero;stroke:none"
               d="m 15671.2,6424.57 c 86.5,10.17 170.9,7.84 255.2,4.43 84.4,-4.59 288.7,-16.93 373.6,-29.82 -42.6,-13.12 -206.7,-13.12 -249.6,-16.46 -42.9,-3.58 -85.5,-2.88 -128.2,-1.32 -84.8,5.04 -169.2,15.84 -251,43.17" /></g><g
             transform="scale(1.27406)"
             id="g458"><path
               id="path460"
               style="fill:#d17f80;fill-opacity:1;fill-rule:nonzero;stroke:none"
               d="m 15889.2,6128.38 c 60.1,-10.04 115.4,-24.09 171.9,-35.47 27.9,-6.44 56.1,-11.7 84.5,-17.51 28.4,-6.12 124.6,-6.59 154.4,-14.99 -59.5,-23.23 -190,-27.23 -249,-14.83 -29.6,6.67 -58.5,15.85 -85.9,29.59 -27.3,13.42 -53.6,30.06 -75.9,53.21" /></g><g
             transform="scale(1.56757)"
             id="g462"><path
               id="path464"
               style="fill:#ffffff;fill-opacity:1;fill-rule:nonzero;stroke:none"
               d="m 16278.8,4967.37 c -488.3,274.69 -1789.6,591.1 -1802.7,594.29 l 10.1,42.04 c 13.2,-3.25 1320.4,-321 1813.8,-598.69 l -21.2,-37.64" /></g><g
             transform="scale(1.45456)"
             id="g466"><path
               id="path468"
               style="fill:#ffffff;fill-opacity:1;fill-rule:nonzero;stroke:none"
               d="m 16279.2,3693.35 c -595.2,296.59 -1254.3,916.43 -1260.9,922.62 l 32,33.89 c 6.6,-6.18 660.8,-621.35 1249.7,-914.77 l -20.8,-41.74" /></g></g></g><g
         transform="scale(1.07702)"
         id="g470"><path
           id="path472"
           style="fill:#fc721a;fill-opacity:1;fill-rule:nonzero;stroke:none"
           d="m 15713.8,9760.37 c -393.2,-187.46 -934.2,-55.9 -1309.5,349.63 -372.7,403 -463,947.8 -251.2,1325 l -26.3,28.3 179.2,165.8 c 388.8,359.6 1063.5,262.9 1506.7,-216.3 443.3,-479.1 487.3,-1159.3 98.4,-1519 l -168.7,-164.26 -28.6,30.83" /></g><g
         transform="scale(1.07758)"
         id="g474"><path
           id="path476"
           style="fill:#101c3a;fill-opacity:1;fill-rule:nonzero;stroke:none"
           d="m 14131.2,11456.9 24.8,-26.6 -2.9,-5.4 c -214.9,-382.4 -112.2,-923 249.8,-1314.4 365.5,-395.18 899.7,-538.09 1299.2,-347.67 l 5.4,2.51 27.1,-28.96 162.5,158.23 c 384.8,356.09 340.5,1031.89 -98.6,1506.49 -213,230.4 -485.9,379.6 -768.5,420.1 -281.7,40.4 -539.6,-32.1 -725.7,-204.2 z m 1188.4,-1794.2 c -323.2,0 -668.4,154.98 -928.9,436.4 -365.2,394.8 -469.6,940.2 -255.1,1328.8 l -27.9,29.8 185.2,171.5 c 189.9,175.7 452.3,249.9 739.5,208.5 286.3,-41.1 562.7,-192.1 778.3,-425.1 445.4,-481.6 489.3,-1167.9 97.8,-1529.96 l -174.5,-170.02 -30.3,32.49 c -119.1,-55.69 -249.7,-82.41 -384.1,-82.41" /></g><g
         transform="scale(1.06587)"
         id="g478"><path
           id="path480"
           style="fill:#ffffff;fill-opacity:1;fill-rule:nonzero;stroke:none"
           d="m 14373.8,10048.3 c 447.9,-484.29 1140.3,-580.46 1533.3,-217 392.9,363.6 337.7,1049.1 -110.1,1533.4 -447.9,484.2 -1129.6,582 -1522.5,218.5 -393,-363.5 -348.5,-1050.8 99.3,-1534.9" /></g><g
         transform="scale(1.05171)"
         id="g482"><path
           id="path484"
           style="fill:#fc721a;fill-opacity:1;fill-rule:nonzero;stroke:none"
           d="m 14696.5,10302.3 c 372.9,-403.01 949.2,-483.17 1276.2,-180.5 327.3,302.5 281.4,873.2 -91.4,1276.3 -372.9,403 -940.3,484.4 -1267.4,181.9 -327.1,-302.6 -290.2,-874.7 82.6,-1277.7" /></g><g
         transform="scale(1.04631)"
         id="g486"><path
           id="path488"
           style="fill:#101c3a;fill-opacity:1;fill-rule:nonzero;stroke:none"
           d="m 15181.7,11814.6 c -182.5,0 -354.5,-59 -486.5,-181.1 -157.1,-145.3 -235.1,-357.5 -219.5,-597.4 15.5,-240.6 123.2,-480.3 303,-674.7 373,-403.23 942.9,-484.28 1270.7,-181.1 156.6,144.8 233.1,356.8 215.1,596.7 -17.7,239.6 -127,479 -307.5,674 -220.2,238.1 -509,363.6 -775.3,363.6 z m 375.6,-1834.83 c -272.5,0 -567.1,127.73 -791.1,369.83 -182.6,197.4 -291.9,440.8 -307.7,685.4 -15.9,245.2 64.1,462.2 225.1,611.1 331.8,306.9 908.7,224.5 1285.9,-183.3 183.2,-198 294.1,-441.1 312.1,-684.5 18.4,-245.3 -60,-462.2 -220.4,-610.5 -137,-126.8 -315.2,-188.03 -503.9,-188.03" /></g><g
         transform="scale(1.00521)"
         id="g490"><path
           id="path492"
           style="fill:#ffffff;fill-opacity:1;fill-rule:nonzero;stroke:none"
           d="m 16177.8,11141.2 c -1,16.9 -6.2,32.2 -15.7,46.1 -9.5,13.8 -22.1,26.6 -37.7,38.4 -15.4,11.8 -33,22.6 -52.7,32.3 -19.7,9.7 -40.1,18.6 -61.3,26.9 l 17.8,-307.2 c 24.3,4.6 46,12.3 64.9,22.8 19,10.5 34.9,23 48,37.3 13.1,14.6 22.7,30.6 29,48.1 6.3,17.6 8.8,36 7.7,55.3 z m -429.6,445.8 c 1,-16.8 5.1,-32.2 12.1,-45.5 7.2,-13.5 16.7,-25.9 28.8,-37 11.9,-11 25.9,-21.1 42.3,-30.3 16.4,-9.3 34.1,-17.6 53.5,-25.7 l -16,272.9 c -40.9,-9.6 -71.7,-26.6 -92.4,-51.1 -20.8,-24.5 -30.2,-52.3 -28.3,-83.3 z m 229.9,253.9 c 31.7,-2.5 62.2,-8.8 91.5,-18.7 29.4,-10.2 56.2,-24.5 80.6,-43.1 24.4,-18.7 45.5,-42 63.5,-70.2 17.9,-28.2 31.3,-61.3 40,-99.4 l -114.1,-6.7 c -15.9,38.2 -36.3,67.7 -61.3,88.6 -25.1,20.9 -56.2,33.6 -93.9,38 l 18.6,-318.5 c 23.6,-8.5 47,-17.1 70.1,-26 23.2,-8.7 45.3,-18.4 66.7,-28.8 21.4,-10.7 41.3,-22.3 59.7,-35.1 18.4,-13 34.7,-27.7 49,-44.2 14.1,-16.7 25.3,-35.3 33.9,-56 8.5,-20.7 13.6,-44 15.1,-69.8 2.5,-43.2 -3.5,-81.1 -17.8,-113.8 -14.4,-32.7 -34.1,-60.6 -59.1,-84.1 -25.1,-23.4 -53.8,-42.1 -86.4,-56.3 -32.8,-14.2 -65.9,-24.1 -99.4,-29.8 l 9.1,-159.3 -115.5,-6.7 -9.4,162.1 c -34.7,5.4 -67.5,16.7 -98.4,33.5 -30.9,16.8 -59,38.2 -84,64 -25.1,25.9 -46.7,55.7 -64.6,89.7 -18,33.7 -31.3,70.4 -39.7,110 l 121.2,7.1 c 5.5,-23.8 13.4,-46.1 23.3,-67 10,-20.8 21.7,-39.4 35,-55.9 13.5,-16.4 28.7,-30.2 45.6,-41.5 17,-11.2 35.2,-19.4 54.8,-24.4 l -20.1,345.9 c -32.7,12.4 -64.4,25.5 -94.9,39.4 -30.5,14.1 -58,30.8 -82.4,50.1 -24.5,19.3 -44.5,42 -59.8,67.9 -15.5,25.9 -24.3,57.3 -26.3,93.8 -2,32.5 2.8,62.9 14.3,91.1 11.7,28.2 28.1,53.6 49.4,76.1 21.4,22.4 46.6,41.3 75.9,57.1 29.2,15.6 60.6,26.9 94.2,34 l -6,102.3 115.5,6.7 6.1,-102.1" /></g><g
         transform="scale(1.22595)"
         id="g494"><path
           id="path496"
           style="fill:#fc721a;fill-opacity:1;fill-rule:nonzero;stroke:none"
           d="m 12323.3,15136.3 c -207.2,20.2 -396.3,207.4 -450,466.1 -53.2,256.8 44.2,502.2 223.8,604.4 l -3.8,18.1 114.3,23.7 c 247.9,51.4 500.3,-154.6 563.6,-460.1 63.4,-305.4 -86.3,-594.8 -334.2,-646.2 l -109.6,-25.7 -4.1,19.7" /></g><g
         transform="scale(1.22562)"
         id="g498"><path
           id="path500"
           style="fill:#101c3a;fill-opacity:1;fill-rule:nonzero;stroke:none"
           d="m 12101.2,16226.2 3.7,-17.1 -2.5,-1.5 c -182.6,-103.7 -273.7,-350.5 -222,-600.3 52.3,-252.1 235.9,-442.5 446.5,-463 l 3,-0.3 3.9,-18.5 105.7,24.7 c 245.5,51 394.1,338.9 331.3,641.8 -62.9,303 -313.4,508 -559.2,457 z m 226.4,-1110.3 -4.4,20.8 c -212.8,22.3 -397.8,214.7 -450.6,469.1 -52.2,251.9 39.5,501.1 223.2,607.3 l -3.9,19.2 3.9,0.8 114.3,23.7 c 25.7,5.4 51.4,7.9 77.1,7.9 223.1,0 434.2,-195.5 491.4,-471.1 63.6,-307.2 -87.6,-599.3 -337.5,-651.2 l -113.5,-26.5" /></g><g
         transform="scale(1.22417)"
         id="g502"><path
           id="path504"
           style="fill:#ffffff;fill-opacity:1;fill-rule:nonzero;stroke:none"
           d="m 11776.2,15601.3 c 63.4,-305.9 320.9,-514.1 569.2,-462.6 248.3,51.5 393.4,343.2 330,649.1 -63.5,306 -316.2,512.2 -564.5,460.7 -248.3,-51.5 -398.2,-341.2 -334.7,-647.2" /></g><g
         transform="scale(1.21602)"
         id="g506"><path
           id="path508"
           style="fill:#fc721a;fill-opacity:1;fill-rule:nonzero;stroke:none"
           d="m 11935.9,15722.3 c 52.5,-253 265.3,-425.2 470.7,-382.5 205.3,42.5 325.4,283.7 272.8,536.7 -52.4,252.9 -261.4,423.5 -466.7,380.9 -205.3,-42.5 -329.2,-282.1 -276.8,-535.1" /></g><g
         transform="scale(1.21633)"
         id="g510"><path
           id="path512"
           style="fill:#101c3a;fill-opacity:1;fill-rule:nonzero;stroke:none"
           d="m 12272.9,16255.8 c -20.7,0 -41.6,-2.1 -62.5,-6.4 -98,-20.4 -180.5,-86.6 -232.3,-186.6 -51.7,-100.2 -66.5,-222.3 -41.2,-343.7 25.1,-121.3 87.9,-227.7 176.5,-299.7 88.4,-71.7 191.1,-99.8 289.2,-79.6 97.8,20.3 179.6,86.8 230.3,187.3 50.7,100.4 64.7,222.7 39.5,344.6 -46.7,224.6 -218.4,384.1 -399.5,384.1 z m 66.8,-930.5 c -80,0 -160.3,30.2 -231.3,87.9 -90.1,73.1 -153.9,181.2 -179.4,304.3 -25.6,123.2 -10.6,247.2 42.1,349.1 52.8,102 137.2,169.8 237.7,190.6 206.5,42.8 418.5,-129.2 471.4,-383.9 25.6,-123.6 11.4,-247.8 -40.1,-349.8 -51.9,-102.7 -135.7,-170.8 -235.9,-191.6 -21.3,-4.4 -42.9,-6.6 -64.5,-6.6" /></g><g
         transform="scale(1.19788)"
         id="g514"><path
           id="path516"
           style="fill:#ffffff;fill-opacity:1;fill-rule:nonzero;stroke:none"
           d="m 12515.5,15913.3 c 3.6,6.9 5.2,14.2 4.7,21.8 -0.5,7.6 -2.3,15.6 -5.6,23.9 -3.4,8.3 -7.7,16.6 -13.1,25 -5.5,8.5 -11.3,16.8 -17.7,25 l -65.3,-124.4 c 10.6,-3.8 20.8,-6 30.7,-6.3 9.8,-0.3 19.1,0.8 27.6,3.3 8.5,2.6 16.1,6.6 22.7,12 6.5,5.3 11.9,12 16,19.7 z m -63,275.6 c -3.6,-6.8 -5.6,-13.7 -6.1,-20.7 -0.3,-6.9 0.5,-14 2.5,-21.2 2.1,-7.1 5.3,-14.4 9.5,-21.8 4.2,-7.5 9.2,-15 14.9,-22.6 l 58,110.4 c -18.2,5.9 -34.3,6.5 -48.1,1.8 -14,-4.7 -24.2,-13.3 -30.7,-25.9 z m 149.6,45.2 c 11.9,-8.5 22.3,-18.1 31.4,-28.9 9.1,-10.9 16.2,-22.8 21.4,-35.9 5.2,-13 7.9,-27.1 8.3,-42.3 0.4,-15.3 -2.2,-31.4 -7.7,-48.4 l -46.3,24.3 c 2.8,18.7 1.8,35.1 -3.1,49.1 -4.8,14.1 -14.1,26.4 -27.7,37 l -67.8,-128.9 c 7.3,-8.9 14.4,-17.8 21.3,-26.7 7,-8.9 13.5,-17.9 19.3,-27 5.9,-9.2 10.9,-18.5 15.1,-27.8 4.2,-9.4 7.1,-19 8.7,-28.8 1.7,-9.9 1.7,-19.8 0.2,-29.9 -1.6,-10.1 -5.1,-20.4 -10.6,-30.9 -9.2,-17.5 -20.5,-30.9 -33.8,-40.3 -13.3,-9.4 -27.6,-15.7 -42.9,-19 -15.2,-3.2 -30.9,-3.8 -47.1,-1.6 -16.1,2.1 -31.3,6.1 -45.9,11.7 l -33.9,-64.5 -46.7,24.6 34.5,65.6 c -12.3,10.4 -22.5,22.5 -30.7,36.3 -8.1,13.9 -14,28.8 -17.7,44.9 -3.7,16 -5.1,32.7 -4.2,50.2 0.9,17.5 4.4,34.9 10.4,52.4 l 49.1,-25.8 c -3.4,-10.5 -5.7,-21.1 -6.7,-31.6 -1,-10.5 -0.7,-20.6 0.6,-30.2 1.4,-9.6 4.1,-18.6 8,-26.9 4,-8.4 9.2,-15.9 15.7,-22.5 l 73.6,140.1 c -9.9,12.5 -19.2,25.1 -27.8,37.7 -8.6,12.7 -15.5,25.7 -20.5,39 -5,13.3 -7.5,26.9 -7.4,40.7 0.1,13.7 4.1,28.1 11.8,42.9 7,13.1 16,23.9 27.1,32.2 11.2,8.3 23.6,14.3 37.2,18.1 13.7,3.8 28,5.3 43.1,4.5 15.2,-0.8 30.1,-3.7 44.9,-8.9 l 21.8,41.4 46.7,-24.5 -21.7,-41.4" /></g><path
         id="path518"
         style="fill:#fc721a;fill-opacity:1;fill-rule:nonzero;stroke:none"
         d="m 11971.5,12352.6 c -256.7,-35.5 -538.2,148.6 -675.7,464.4 -136.4,313.8 -87.2,657.4 101.9,841.8 l -9.7,22.1 131.8,64.3 c 285.9,139.4 649.4,-50 811.7,-423 162.3,-373.1 62,-788.6 -223.9,-928.2 l -125.6,-65.3 -10.5,23.9" /><path
         id="path520"
         style="fill:#101c3a;fill-opacity:1;fill-rule:nonzero;stroke:none"
         d="m 11974.5,12358.2 10,-22.6 120.7,63 c 283.3,138.2 382.7,551.5 221.7,921.5 -90.5,208.1 -246.5,365.7 -427.9,432.6 -131.1,48.3 -261.4,44.2 -377,-12.1 l -127.4,-62.2 9.1,-20.8 -2.5,-2.4 c -192,-187.4 -233.4,-531.1 -100.7,-836.1 133.9,-307.8 409.2,-497.8 670.3,-461.4 z m 5,-36.5 -11.2,25.4 c -264.7,-34.2 -542.1,157.6 -677.1,467.9 -133.8,307.4 -92.5,654.2 100.4,845 l -10.3,23.3 136.2,66.4 c 118,57.6 251.2,61.9 385,12.6 184,-67.9 342,-227.6 433.6,-438 163.3,-375 61.7,-794.4 -226.3,-934.8 l -130.3,-67.8" /><path
         id="path522"
         style="fill:#ffffff;fill-opacity:1;fill-rule:nonzero;stroke:none"
         d="m 11164.1,12752.8 c 162.2,-373.1 531.9,-563.6 817.9,-424.1 286,139.4 380,556.1 217.7,929.2 -162.3,373.1 -525.7,562.4 -811.7,423 -286,-139.5 -386.3,-555.1 -223.9,-928.1" /><path
         id="path524"
         style="fill:#fc721a;fill-opacity:1;fill-rule:nonzero;stroke:none"
         d="m 11256.7,12797.6 c 133.3,-306.5 437,-463 671.8,-348.3 234.9,114.5 312.1,456.7 178.8,763.2 -133.3,306.4 -431.8,461.9 -666.7,347.4 -234.9,-114.6 -317.3,-455.9 -183.9,-762.3" /><path
         id="path526"
         style="fill:#101c3a;fill-opacity:1;fill-rule:nonzero;stroke:none"
         d="m 11604.7,13592.6 c -56.3,0 -110.8,-12.4 -161.9,-37.3 -232.1,-113.3 -313.5,-452.3 -181.5,-755.7 74.2,-170.3 202.9,-299.7 353.4,-355.2 108.9,-40 216.7,-36.9 311.6,9.4 230,112.2 309,451.6 176.3,756.6 -74.2,170.6 -202.1,300 -350.9,354.9 -49.5,18.2 -99,27.3 -147,27.3 z m 159.2,-1185.8 c -50.3,0 -101.9,9.3 -152.7,28.1 -153.1,56.5 -284,187.9 -359.1,360.6 -134.3,308.4 -50.6,653.3 186.3,769 97.1,47.4 206.8,51 316.8,10.3 151.3,-55.8 281.4,-187.1 356.7,-360.3 134.9,-309.9 53.7,-655.3 -181.2,-769.8 -51.6,-25.3 -108.3,-37.9 -166.8,-37.9" /><path
         id="path528"
         style="fill:#ffffff;fill-opacity:1;fill-rule:nonzero;stroke:none"
         d="m 11741.6,12854.1 c 2.4,9.7 2.3,19.2 -0.4,28.7 -2.6,9.4 -7,18.9 -13.2,28.3 -6.2,9.4 -13.6,18.6 -22.3,27.6 -8.7,9 -17.9,17.7 -27.7,26.2 l -43.4,-174.9 c 13.7,-1.7 26.4,-1.4 38.2,1 11.8,2.5 22.4,6.6 31.7,12.2 9.4,5.7 17.2,12.9 23.6,21.5 6.3,8.7 10.8,18.5 13.5,29.4 z m -150,327.2 c -2.4,-9.6 -2.9,-18.8 -1.4,-27.6 1.4,-8.9 4.4,-17.5 8.8,-25.9 4.4,-8.4 10,-16.6 17.1,-24.6 7,-8.2 15,-16.1 23.8,-24.1 l 38.5,155.2 c -23.3,2.2 -42.4,-1.7 -57.6,-11.6 -15.1,-10 -24.9,-23.8 -29.2,-41.4 z m 164.8,100 c 16.3,-7.2 31.3,-16.2 45.1,-27.2 13.7,-10.9 25.4,-23.8 35.1,-38.7 9.7,-14.8 16.8,-31.7 21.4,-50.7 4.6,-19 6,-39.9 4.1,-62.8 l -61.4,17 c -1.8,24.2 -7.5,44.5 -17.1,60.7 -9.6,16.2 -23.9,29 -42.9,38.3 l -44.9,-181.3 c 10.9,-9 21.8,-18.1 32.5,-27.3 10.7,-9.1 20.7,-18.4 30.2,-28.2 9.4,-9.8 17.9,-20 25.5,-30.5 7.4,-10.5 13.5,-21.7 18.2,-33.5 4.6,-11.9 7.3,-24.4 8.3,-37.5 0.9,-13.1 -0.4,-27 -4.1,-41.7 -6.1,-24.6 -15.7,-44.7 -28.9,-60.3 -13.2,-15.6 -28.4,-27.7 -45.6,-36.2 -17.3,-8.5 -35.6,-13.8 -55.3,-15.7 -19.6,-2 -38.8,-1.5 -57.5,1.4 l -22.5,-90.7 -62.1,17.3 22.9,92.2 c -17.4,9.4 -32.8,21.6 -46.2,36.6 -13.4,15.1 -24.5,32.1 -33.3,51.1 -8.8,19 -15,39.5 -18.7,61.8 -3.7,22.1 -4.4,45 -2,68.7 l 65.1,-18.2 c -1.1,-14.2 -0.8,-28.1 0.8,-41.6 1.7,-13.4 4.7,-25.9 8.9,-37.5 4.3,-11.7 9.9,-22.2 16.9,-31.5 7.1,-9.4 15.2,-17.3 24.7,-23.7 l 48.9,196.9 c -15.2,12.9 -29.7,26 -43.4,39.3 -13.7,13.4 -25.3,27.7 -34.9,42.9 -9.5,15.3 -16.2,31.5 -19.8,48.9 -3.7,17.2 -3,36.3 2.2,57.1 4.6,18.5 12.3,34.6 23.2,48.3 11,13.6 24,24.8 39.1,33.5 15.2,8.6 31.7,14.7 49.8,18.1 18.1,3.4 36.7,4 55.6,1.9 l 14.4,58.1 62.1,-17.2 -14.4,-58.1" /><g
         transform="scale(1.20027)"
         id="g530"><path
           id="path532"
           style="fill:#fc721a;fill-opacity:1;fill-rule:nonzero;stroke:none"
           d="m 9961.38,14006.1 c -332.84,-6.8 -717.34,315.5 -924.46,806.8 -205.71,488 -170.97,987.2 60.65,1226 l -14.58,34.4 166.97,71.5 c 362.25,155.2 854.34,-189.5 1099.04,-769.9 244.7,-580.3 149.3,-1176.7 -213,-1331.9 l -158.71,-74.3 -15.91,37.4" /></g><g
         transform="scale(1.19326)"
         id="g534"><path
           id="path536"
           style="fill:#101c3a;fill-opacity:1;fill-rule:nonzero;stroke:none"
           d="m 10024.6,14095.5 15,-35.2 152.9,71.5 c 360.5,154.6 455,751.4 210.8,1330.7 -153.9,365 -409.75,649.1 -684.46,759.9 -147.16,59.3 -289.37,63.1 -411.73,10.7 l -161.49,-69.2 13.75,-32.4 -3.27,-3.4 c -236.41,-243.8 -260.97,-747.8 -59.59,-1225.5 201.22,-477.2 575.23,-807.3 912.69,-807.3 3.5,0 7.1,0.1 10.7,0.2 z m 7.7,-54.4 -17,40.1 c -2,0 -4,-0.1 -6,-0.1 -343.25,0 -722.47,333.6 -925.86,816 -202.64,480.6 -178.08,988.4 59.16,1237.5 l -15.5,36.7 6.45,2.9 168.03,71.9 c 125.62,53.9 271.69,50.2 422.54,-10.5 278.18,-112.3 536.98,-399.2 692.18,-767.6 247.3,-586.4 149.5,-1191.6 -218,-1349.1 l -166,-77.8" /></g><g
         transform="scale(1.19499)"
         id="g538"><path
           id="path540"
           style="fill:#ffffff;fill-opacity:1;fill-rule:nonzero;stroke:none"
           d="m 8909.08,14806.4 c 245.69,-583 748.28,-931.9 1112.22,-776.1 363.9,155.9 451.4,757.6 205.7,1340.6 -245.79,583 -740.02,929.1 -1103.95,773.3 -363.93,-155.9 -459.75,-754.9 -213.97,-1337.8" /></g><g
         transform="scale(1.17909)"
         id="g542"><path
           id="path544"
           style="fill:#fc721a;fill-opacity:1;fill-rule:nonzero;stroke:none"
           d="m 9148.72,15056.7 c 204.56,-485.3 622.93,-775.9 925.78,-646 303,129.8 375.9,630.7 171.2,1115.9 -204.5,485.2 -615.94,773.4 -918.88,643.7 -302.94,-129.8 -382.75,-628.4 -178.1,-1113.6" /></g><g
         transform="scale(1.17344)"
         id="g546"><path
           id="path548"
           style="fill:#101c3a;fill-opacity:1;fill-rule:nonzero;stroke:none"
           d="m 9527.23,16272.2 c -53.69,0 -104.99,-10.2 -152.54,-30.7 -300.32,-128.5 -378.89,-626.3 -175.22,-1109.4 128.35,-304.4 343.53,-542 575.75,-635.6 123.74,-50 243.08,-53.4 345.08,-9.6 297.5,127.4 373,626.2 168.2,1111.7 -128.4,304.6 -341.82,541.6 -570.97,634.1 -65.2,26.3 -129.28,39.5 -190.3,39.5 z m 440.76,-1830.3 c -63.49,0 -130.3,13.7 -198.23,41.2 -235.63,95 -453.79,335.5 -583.58,643.3 -206.83,490.5 -124.76,996.7 182.8,1128.5 105.41,45.1 227.79,42.1 353.91,-8.8 232.65,-93.9 449.01,-333.8 578.91,-641.8 207.9,-493 128.9,-1000.2 -175.9,-1130.8 -49.2,-21 -102.4,-31.6 -157.91,-31.6" /></g><g
         transform="scale(1.14407)"
         id="g550"><path
           id="path552"
           style="fill:#ffffff;fill-opacity:1;fill-rule:nonzero;stroke:none"
           d="m 10089.7,15514.6 c 2.3,14.6 1.4,29.4 -3.2,44.6 -4.4,15 -11.3,30.6 -20.7,46.3 -9.4,15.8 -20.4,31.4 -33.1,47 -12.9,15.6 -26.3,30.9 -40.49,45.7 l -43.71,-263 c 18.88,-5.3 36.28,-7.1 52.3,-5.6 16,1.6 30.1,6 42.5,12.9 12.4,7.1 22.5,16.8 30.4,29.1 7.9,12.2 13.2,26.6 16,43 z m -235.77,535.4 c -2.36,-14.4 -2.19,-28.7 0.61,-42.6 2.71,-14 7.6,-27.9 14.42,-41.7 6.73,-13.8 15.3,-27.6 25.7,-41.5 10.49,-13.9 22.03,-27.7 34.88,-41.7 l 38.8,233.5 c -32.07,7.7 -58.03,5.2 -77.96,-7.3 -19.93,-12.6 -32.08,-32.1 -36.45,-58.7 z m 217.27,124.2 c 23.1,-14.2 44.5,-30.9 64.4,-50.5 19.9,-19.6 37.1,-41.7 51.8,-66.6 14.6,-24.7 25.9,-52.3 34,-82.6 8,-30.4 11.8,-63.1 11.3,-98.2 l -85.8,37.8 c -4.7,38 -14.4,70.4 -29.1,97.3 -14.6,27 -35.4,49.5 -62.4,67.5 l -45.3,-272.7 c 15.8,-16.1 31.7,-32.2 47.1,-48.4 15.6,-16.1 30.3,-32.5 44.1,-49.5 13.9,-16.9 26.5,-34.3 37.7,-51.9 11.2,-17.8 20.7,-36.2 28.1,-55.5 7.4,-19.3 12.2,-39.1 14.8,-59.6 2.4,-20.5 1.9,-41.9 -1.8,-64 -6.2,-37 -17.5,-66.4 -34.2,-88.1 -16.8,-21.8 -36.5,-37.6 -59.4,-47.6 -22.9,-10 -47.7,-14.7 -74.5,-14.1 -26.79,0.7 -53.27,5 -79.14,13 l -22.64,-136.4 -86.88,38.5 23.07,138.7 c -24.74,17.8 -46.94,39.6 -66.78,65.4 -19.75,25.8 -36.62,54.3 -50.26,85.4 -13.9,31.1 -24.3,64.2 -31.38,99.3 -6.99,35 -10.05,70.6 -9,106.9 l 91.16,-40.3 c -0.25,-21.9 1.4,-43.5 4.9,-64.6 3.5,-21.2 8.74,-41.2 15.56,-60 6.9,-18.9 15.64,-36.2 26.05,-52 10.57,-15.9 22.55,-29.6 36.09,-41.2 l 49.22,296.1 c -22.03,22.8 -43.1,45.8 -63.02,69.1 -20.02,23.3 -37.24,47.6 -51.84,73 -14.51,25.5 -25.17,52 -31.73,79.4 -6.55,27.5 -7.25,57 -2.01,88.3 4.55,27.8 13.73,51.3 27.54,70.5 13.81,19.1 30.68,33.9 50.6,44.6 20.02,10.6 42.22,16.9 66.7,18.8 24.65,1.8 50,-0.6 76.22,-7.5 l 14.51,87.5 86.76,-38.3 -14.5,-87.5" /></g><g
         transform="scale(1.44216)"
         id="g554"><path
           id="path556"
           style="fill:#fc721a;fill-opacity:1;fill-rule:nonzero;stroke:none"
           d="m 9905.26,15111.9 c -199.7,-170.9 -535.59,-179.1 -817.87,-1.6 -280.34,176.3 -418.47,479.6 -354.19,732.6 l -19.83,12.3 78.49,124.8 c 170.09,270.6 578.37,320 911.83,110.3 333.41,-209.6 465.71,-599 295.59,-869.7 l -72.53,-122.1 -21.49,13.4" /></g><g
         transform="scale(1.43697)"
         id="g558"><path
           id="path560"
           style="fill:#101c3a;fill-opacity:1;fill-rule:nonzero;stroke:none"
           d="m 8751.83,15914.1 18.72,-11.6 -0.91,-3.6 c -65.48,-257.7 79.82,-557.8 353.25,-729.8 275.99,-173.4 611.21,-173 814.83,1.3 l 2.86,2.4 20.39,-12.7 70.13,118.1 c 81.9,130.2 96.3,291.8 40.8,455.2 -55.7,163.7 -174.95,309.7 -335.78,410.8 -160.89,101.2 -343.99,145.3 -515.74,124.7 -171.33,-20.8 -310.79,-103.8 -392.49,-233.8 z m 804.61,-884.8 c -145.31,0 -299.59,43.8 -438.91,131.3 -275.79,173.5 -422.84,476.2 -358.61,737.2 l -21.01,13.2 2.71,4.2 78.71,125.2 c 83.44,132.7 225.4,217.4 399.8,238.5 173.98,21.1 359.44,-23.7 522.28,-126.2 162.91,-102.3 283.59,-250.1 339.99,-416 56.5,-166.4 41.7,-331 -41.7,-463.7 l -75.32,-127 -22.9,14.3 c -103.55,-87.3 -239.88,-131 -385.04,-131" /></g><g
         transform="scale(1.43113)"
         id="g562"><path
           id="path564"
           style="fill:#ffffff;fill-opacity:1;fill-rule:nonzero;stroke:none"
           d="m 9078.43,15101.1 c 335.95,-211.3 753.39,-158.9 924.87,113.8 171.5,272.7 32.2,662.5 -303.83,873.8 -336.03,211.3 -747.38,161.5 -918.92,-111.2 -171.48,-272.7 -38.15,-665.1 297.88,-876.4" /></g><g
         transform="scale(1.42005)"
         id="g566"><path
           id="path568"
           style="fill:#fc721a;fill-opacity:1;fill-rule:nonzero;stroke:none"
           d="m 9205.44,15307.6 c 278.15,-174.9 623.64,-131.5 765.53,94.2 141.93,225.8 26.69,548.4 -251.47,723.3 -278.16,174.9 -618.71,133.7 -760.67,-92 -141.9,-225.8 -31.55,-550.6 246.61,-725.5" /></g><g
         transform="scale(1.42053)"
         id="g570"><path
           id="path572"
           style="fill:#101c3a;fill-opacity:1;fill-rule:nonzero;stroke:none"
           d="m 9354.65,16222.6 c -164.31,0 -312.91,-67.9 -394.5,-197.7 -67.8,-107.8 -79.83,-241.8 -33.72,-377.3 46.11,-135.9 145.08,-256.9 278.55,-340.9 133.48,-83.8 286.3,-120.2 430.41,-102.3 143.6,17.8 260.04,87 327.9,194.9 67.61,107.5 78.71,241.1 31.33,376.2 -47.31,134.9 -147.2,255.6 -281.17,339.8 -114.95,72.3 -240.89,107.3 -358.8,107.3 z m 208.23,-1032.8 c -123.9,0 -250.54,37.4 -363.25,108.3 -135.58,85.2 -235.96,208.1 -282.92,346.2 -47.09,138.5 -34.7,275.6 34.85,386 143.11,227.7 487.42,269.7 767.31,93.6 135.94,-85.4 237.31,-207.9 285.33,-345 48.4,-138.1 36.9,-274.9 -32.32,-385 -69.48,-110.6 -188.52,-181.5 -335.23,-199.6 -24.43,-3 -49.06,-4.5 -73.77,-4.5" /></g><g
         transform="scale(1.39733)"
         id="g574"><path
           id="path576"
           style="fill:#ffffff;fill-opacity:1;fill-rule:nonzero;stroke:none"
           d="m 9750.24,15881 c -3.14,9.4 -8.37,17.2 -15.88,23.5 -7.38,6.3 -16.32,11.7 -26.91,15.9 -10.45,4.3 -21.97,7.7 -34.42,10.2 -12.53,2.4 -25.41,4.4 -38.51,5.7 l 56.47,-169.7 c 12.88,6.4 23.9,13.9 32.92,22.7 9.01,8.7 16.17,18.2 21.32,28.2 5.08,10.1 8.09,20.6 9.02,31.4 0.86,10.8 -0.5,21.5 -4.01,32.1 z m -308.58,185.3 c 3.14,-9.3 7.72,-17.2 13.74,-23.7 6.01,-6.5 13.3,-11.9 21.68,-16.4 8.37,-4.4 17.75,-7.9 28.34,-10.6 10.59,-2.7 21.83,-4.8 33.92,-6.3 l -50.17,150.7 c -21.54,-11.5 -36.21,-25.7 -44.15,-42.6 -7.95,-16.9 -9.09,-33.9 -3.36,-51.1 z m 90.67,177.2 c 18.17,3.5 36.21,4.6 54.24,3.4 17.97,-1.3 35.21,-5.2 51.75,-12 16.53,-6.8 31.91,-16.7 46.23,-29.8 14.31,-13.1 26.83,-29.7 37.57,-49.8 l -63.12,-21 c -14.67,19.1 -30.63,32.6 -47.81,40.5 -17.25,8 -36.64,10.4 -58.4,7.2 l 58.54,-176 c 14.53,-1.2 28.92,-2.5 43.3,-4 14.31,-1.4 28.2,-3.4 41.8,-6.1 13.59,-2.8 26.55,-6.3 38.78,-10.7 12.24,-4.4 23.69,-10.2 34.14,-17.4 10.45,-7.2 19.61,-16 27.55,-26.3 7.88,-10.3 14.24,-22.6 18.97,-36.9 7.94,-23.9 10.37,-46.1 7.23,-66.5 -3.15,-20.6 -9.95,-39.2 -20.4,-56.2 -10.59,-16.9 -23.9,-31.8 -40.08,-44.6 -16.17,-12.9 -33.35,-23.5 -51.31,-31.8 l 29.27,-88 -63.83,-21.2 -29.78,89.5 c -20.32,-2.1 -40.43,-0.8 -60.33,4 -19.89,4.7 -38.85,12.5 -56.82,23.2 -17.96,10.7 -34.56,24.2 -49.81,40.5 -15.17,16.3 -28.19,34.9 -38.93,55.8 l 66.99,22.3 c 6.72,-12.5 14.52,-23.8 23.25,-34 8.66,-10.2 18.11,-18.9 28.13,-26.1 9.95,-7.2 20.61,-12.7 31.78,-16.4 11.3,-3.8 22.75,-5.6 34.49,-5.5 l -63.55,191.2 c -20.25,2 -40.08,4.5 -59.26,7.8 -19.25,3.2 -37.21,8.4 -53.81,15.6 -16.68,7.1 -31.35,16.8 -43.87,29 -12.53,12.3 -22.26,28.6 -28.91,48.8 -6.02,17.9 -7.88,35.7 -5.66,53.3 2.22,17.5 7.59,34.2 16.18,50.1 8.58,15.9 19.89,30.3 33.92,43.5 14.1,13.2 29.98,24.3 47.73,33.4 l -18.75,56.4 63.77,21.3 18.82,-56.5" /></g><g
         transform="scale(1.01677)"
         id="g578"><path
           id="path580"
           style="fill:#fc721a;fill-opacity:1;fill-rule:nonzero;stroke:none"
           d="m 14567.7,14077.5 c 392.7,137.3 671.3,590.3 653,1117.8 -18.1,524 -323.3,954.3 -720.6,1067.7 l -1.1,37 -233.2,-8.1 c -505.6,-17.5 -898.2,-536.9 -876.7,-1160 21.7,-623.2 449.2,-1114.1 954.9,-1096.6 l 224.9,2.1 -1.2,40.1" /></g><g
         transform="scale(1.01728)"
         id="g582"><path
           id="path584"
           style="fill:#101c3a;fill-opacity:1;fill-rule:nonzero;stroke:none"
           d="m 14484,16283.7 -225,-8 c -242,-8.2 -465.7,-132.4 -629.6,-349.4 -164.5,-217.6 -249.3,-502.3 -238.9,-801.7 20.9,-606.7 431.2,-1088.9 920.3,-1088.9 8.6,0 17.2,0.2 25.7,0.5 l 216.9,2 -1.2,37.8 5.5,2 c 399,139.4 665.2,595.7 647.4,1109.4 -17.6,509 -311.4,944.8 -714.4,1059.9 l -5.6,1.6 z m -173.4,-2263.9 c -497.4,0 -914.8,488.9 -936.1,1104.2 -10.5,303.1 75.6,591.4 242.2,811.8 166.9,221 394.8,347.4 641.7,355.9 l 241,8.3 1.2,-39.1 c 406.8,-119.3 702.7,-559.5 720.4,-1072.9 17.9,-518.3 -250,-979.2 -652.5,-1123.2 l 1.3,-42.3 -232.9,-2.2 c -8.7,-0.3 -17.6,-0.5 -26.3,-0.5" /></g><g
         transform="scale(1.01786)"
         id="g586"><path
           id="path588"
           style="fill:#ffffff;fill-opacity:1;fill-rule:nonzero;stroke:none"
           d="m 15437.2,15187.2 c 21.6,-622.6 -378.7,-1147.4 -883.9,-1164.9 -505.2,-17.5 -924.1,478.9 -945.7,1101.4 -21.5,622.5 370.6,1141.2 875.9,1158.8 505,17.5 932.2,-472.9 953.7,-1095.3" /></g><g
         transform="scale(1.00507)"
         id="g590"><path
           id="path592"
           style="fill:#fc721a;fill-opacity:1;fill-rule:nonzero;stroke:none"
           d="m 15468.3,15374.3 c 17.9,-517.9 -315,-954.5 -735.3,-968.9 -420.2,-14.6 -768.7,398.3 -786.6,916.2 -17.9,517.6 308.3,949.3 728.5,963.8 420.2,14.6 775.5,-393.4 793.4,-911.1" /></g><g
         transform="scale(1.00469)"
         id="g594"><path
           id="path596"
           style="fill:#101c3a;fill-opacity:1;fill-rule:nonzero;stroke:none"
           d="m 14702.1,16283.9 c -7.2,0 -14.1,-0.1 -21.4,-0.4 -415.3,-14.4 -738.6,-443.2 -720.9,-955.9 8.6,-249.6 94,-481.5 240.5,-653 141.6,-165.7 324.3,-256.1 516.7,-256.1 7.1,0 14.3,0.1 21.3,0.4 201.1,6.9 387.9,110.8 526.1,292.6 138.7,182.5 210.3,419.9 201.7,668.3 -17.4,503.9 -358,904.1 -764,904.1 z m 14.8,-1881.5 c -197.1,0 -384.1,92.4 -528.8,261.7 -148.9,174.4 -235.7,409.7 -244.5,662.9 -18,521.6 312.4,957.9 736.6,972.6 7.3,0.3 14.6,0.4 21.9,0.4 414.6,0 762.4,-407.1 780.1,-919.7 8.7,-252.1 -64.1,-493.1 -205,-678.5 -141.1,-185.7 -332.3,-291.9 -538.3,-299 -7.3,-0.2 -14.6,-0.4 -22,-0.4" /></g><path
         id="path598"
         style="fill:#ffffff;fill-opacity:1;fill-rule:nonzero;stroke:none"
         d="m 15009.8,15260.4 c -0.9,15.4 -5.6,29.4 -14.3,41.9 -8.6,12.5 -19.9,24.1 -34.1,34.8 -14,10.7 -30,20.5 -47.8,29.2 -17.8,8.9 -36.4,17 -55.6,24.4 l 16.2,-278.5 c 22,4.3 41.7,11.2 58.8,20.7 17.2,9.6 31.7,20.9 43.5,33.9 11.9,13.2 20.6,27.7 26.3,43.6 5.7,15.9 8,32.6 7,50 z m -389.5,404.2 c 0.9,-15.3 4.6,-29.1 11.1,-41.3 6.4,-12.2 15.1,-23.4 26,-33.5 10.8,-10 23.6,-19.1 38.4,-27.5 14.8,-8.4 30.9,-16 48.4,-23.2 l -14.4,247.3 c -37.1,-8.6 -65,-24.1 -83.7,-46.2 -18.9,-22.3 -27.4,-47.5 -25.8,-75.6 z m 208.4,230.1 c 28.8,-2.2 56.4,-7.9 83,-17 26.6,-9.1 51,-22.1 73.1,-39 22.1,-16.9 41.3,-38.1 57.5,-63.6 16.2,-25.6 28.4,-55.6 36.4,-90.2 l -103.5,-6.1 c -14.4,34.7 -32.9,61.5 -55.6,80.4 -22.7,19.1 -51,30.5 -85.1,34.6 l 16.9,-288.8 c 21.3,-7.7 42.5,-15.5 63.5,-23.5 21,-8 41.1,-16.7 60.5,-26.3 19.3,-9.6 37.4,-20.2 54.1,-31.8 16.7,-11.6 31.5,-25 44.3,-40 12.9,-15.1 23.1,-32 30.9,-50.8 7.6,-18.7 12.2,-39.8 13.6,-63.3 2.3,-39.1 -3.1,-73.5 -16.2,-103.1 -13,-29.6 -30.8,-55 -53.4,-76.2 -22.8,-21.2 -48.9,-38.2 -78.5,-51 -29.6,-12.9 -59.7,-21.9 -90.1,-27.1 l 8.4,-144.4 -104.7,-6 -8.6,146.9 c -31.5,5 -61.2,15.1 -89.2,30.3 -28,15.3 -53.5,34.6 -76.1,58.1 -22.8,23.4 -42.4,50.5 -58.6,81.2 -16.3,30.6 -28.4,63.9 -36,99.8 l 109.9,6.4 c 5,-21.5 12.1,-41.7 21.1,-60.7 9,-18.8 19.7,-35.7 31.8,-50.6 12.2,-15 26,-27.5 41.3,-37.7 15.4,-10.2 31.9,-17.6 49.7,-22.1 l -18.2,313.6 c -29.8,11.2 -58.6,23 -86.1,35.7 -27.7,12.7 -52.6,27.8 -74.7,45.3 -22.2,17.6 -40.4,38.1 -54.3,61.6 -13.9,23.5 -21.9,52 -23.8,85.1 -1.7,29.4 2.6,57 13.1,82.5 10.5,25.6 25.4,48.6 44.7,69 19.4,20.4 42.2,37.6 68.7,51.8 26.6,14.1 55,24.4 85.5,30.8 l -5.4,92.7 104.6,6.1 5.5,-92.6" /><g
         transform="scale(1.89923)"
         id="g600"><path
           id="path602"
           style="fill:#425fec;fill-opacity:1;fill-rule:evenodd;stroke:none"
           d="m 15614.1,10343.4 685.9,41 -307.5,-614.5 -378.4,573.5" /></g><g
         transform="scale(1.91691)"
         id="g604"><path
           id="path606"
           style="fill:#101c3a;fill-opacity:1;fill-rule:nonzero;stroke:none"
           d="m 15621.2,10204.8 361.8,-548.42 294.1,587.52 z m 363.4,-575.83 -388,588.13 703.4,42 -5.3,-10.7 -310.1,-619.43" /></g><g
         transform="scale(1.5604)"
         id="g608"><path
           id="path610"
           style="fill:#425fec;fill-opacity:1;fill-rule:nonzero;stroke:none"
           d="m 15906.6,15376.4 -4.7,-1.7 141.6,-383.5 256.5,308 -15.2,14.5 c -102.3,83.1 -245.1,111.6 -378.2,62.7" /></g><g
         transform="scale(1.12892)"
         id="g612"><path
           id="path614"
           style="fill:#425fec;fill-opacity:1;fill-rule:nonzero;stroke:none"
           d="m 7577.53,16161.1 c -30.48,28.6 -32,76.4 -3.4,106.9 28.63,30.5 76.53,32 107.01,3.4 30.48,-28.6 31.98,-76.5 3.37,-107 -28.6,-30.5 -76.5,-32 -106.98,-3.3" /></g><g
         transform="scale(1.48008)"
         id="g616"><path
           id="path618"
           style="fill:#390d9f;fill-opacity:1;fill-rule:nonzero;stroke:none"
           d="m 14271.1,16194 c -23.2,21.8 -24.4,58.4 -2.5,81.6 21.7,23.3 58.3,24.4 81.5,2.6 23.3,-21.8 24.5,-58.4 2.6,-81.6 -21.8,-23.3 -58.3,-24.4 -81.6,-2.6" /></g><g
         transform="scale(1.65839)"
         id="g620"><path
           id="path622"
           style="fill:#390d9f;fill-opacity:1;fill-rule:nonzero;stroke:none"
           d="m 16207.7,11478.8 c -20.8,19.4 -21.8,52.1 -2.3,72.8 19.5,20.7 52.1,21.8 72.8,2.3 20.8,-19.5 21.8,-52.1 2.3,-72.8 -19.5,-20.8 -52,-21.8 -72.8,-2.3" /></g><g
         transform="scale(1.86239)"
         id="g624"><path
           id="path626"
           style="fill:#390d9f;fill-opacity:1;fill-rule:nonzero;stroke:none"
           d="m 16135.6,8343.09 c -37,34.68 -38.8,92.78 -4.1,129.72 34.7,36.94 92.7,38.77 129.7,4.08 36.9,-34.69 38.8,-92.73 4.1,-129.67 -34.7,-36.94 -92.8,-38.82 -129.7,-4.13" /></g></g></g></svg>